PowerhouseFilarQuarto-Bold.ufo
<glyph name="exclam" format="2">
  <advance width="350"/>
  <unicode hex="0021"/>
  <outline>
    <contour>
      <point x="254" y="700" type="line"/>
      <point x="95" y="700" type="line"/>
      <point x="130" y="217" type="line"/>
      <point x="219" y="217" type="line"/>
    </contour>
    <component base="period" identifier="74AA3EC3"/>
  </outline>
</glyph>
<glyph name="percent" format="2">
  <advance width="760"/>
  <unicode hex="0025"/>
  <outline>
    <contour>
      <point x="189" y="0" type="line"/>
      <point x="691" y="700" type="line"/>
      <point x="575" y="700" type="line"/>
      <point x="73" y="0" type="line"/>
    </contour>
    <contour>
      <point x="34" y="524" type="curve" smooth="yes"/>
      <point x="34" y="412"/>
      <point x="97" y="341"/>
      <point x="188" y="341" type="curve" smooth="yes"/>
      <point x="279" y="341"/>
      <point x="342" y="412"/>
      <point x="342" y="524" type="curve" smooth="yes"/>
      <point x="342" y="636"/>
      <point x="279" y="707"/>
      <point x="188" y="707" type="curve" smooth="yes"/>
      <point x="97" y="707"/>
      <point x="34" y="636"/>
    </contour>
    <contour>
      <point x="136" y="524" type="curve" smooth="yes"/>
      <point x="136" y="581"/>
      <point x="154" y="617"/>
      <point x="188" y="617" type="curve" smooth="yes"/>
      <point x="222" y="617"/>
      <point x="240" y="581"/>
      <point x="240" y="524" type="curve" smooth="yes"/>
      <point x="240" y="467"/>
      <point x="222" y="431"/>
      <point x="188" y="431" type="curve" smooth="yes"/>
      <point x="154" y="431"/>
      <point x="136" y="467"/>
    </contour>
    <contour>
      <point x="419" y="176" type="curve" smooth="yes"/>
      <point x="419" y="64"/>
      <point x="482" y="-7"/>
      <point x="573" y="-7" type="curve" smooth="yes"/>
      <point x="664" y="-7"/>
      <point x="727" y="64"/>
      <point x="727" y="176" type="curve" smooth="yes"/>
      <point x="727" y="288"/>
      <point x="664" y="359"/>
      <point x="573" y="359" type="curve" smooth="yes"/>
      <point x="482" y="359"/>
      <point x="419" y="288"/>
    </contour>
    <contour>
      <point x="521" y="176" type="curve" smooth="yes"/>
      <point x="521" y="233"/>
      <point x="539" y="269"/>
      <point x="573" y="269" type="curve" smooth="yes"/>
      <point x="607" y="269"/>
      <point x="625" y="233"/>
      <point x="625" y="176" type="curve" smooth="yes"/>
      <point x="625" y="119"/>
      <point x="607" y="83"/>
      <point x="573" y="83" type="curve" smooth="yes"/>
      <point x="539" y="83"/>
      <point x="521" y="119"/>
    </contour>
  </outline>
</glyph>
<glyph name="quotesingle" format="2">
  <advance width="350"/>
  <unicode hex="0027"/>
  <outline>
    <contour>
      <point x="96" y="700" type="line"/>
      <point x="122" y="364" type="line"/>
      <point x="228" y="364" type="line"/>
      <point x="254" y="700" type="line"/>
    </contour>
  </outline>
</glyph>
<glyph name="asterisk" format="2">
  <advance width="350"/>
  <unicode hex="002A"/>
  <outline>
    <contour>
      <point x="35" y="405" type="line"/>
      <point x="105" y="354" type="line"/>
      <point x="175" y="449" type="line"/>
      <point x="244" y="354" type="line"/>
      <point x="314" y="404" type="line"/>
      <point x="245" y="500" type="line"/>
      <point x="357" y="536" type="line"/>
      <point x="331" y="618" type="line"/>
      <point x="218" y="581" type="line"/>
      <point x="218" y="700" type="line"/>
      <point x="132" y="700" type="line"/>
      <point x="132" y="582" type="line"/>
      <point x="19" y="619" type="line"/>
      <point x="-7" y="537" type="line"/>
      <point x="105" y="501" type="line"/>
    </contour>
  </outline>
</glyph>
<glyph name="comma" format="2">
  <advance width="350"/>
  <unicode hex="002C"/>
  <outline>
    <contour>
      <point x="101" y="158" type="line"/>
      <point x="101" y="0" type="line"/>
      <point x="178" y="0" type="line"/>
      <point x="178" y="-13" type="line" smooth="yes"/>
      <point x="178" y="-64"/>
      <point x="148" y="-99"/>
      <point x="79" y="-99" type="curve"/>
      <point x="79" y="-160" type="line"/>
      <point x="210" y="-160"/>
      <point x="249" y="-66"/>
      <point x="249" y="-12" type="curve" smooth="yes"/>
      <point x="249" y="158" type="line"/>
    </contour>
  </outline>
</glyph>
<glyph name="equal" format="2">
  <advance width="600"/>
  <unicode hex="003D"/>
  <outline>
    <contour>
      <point x="544" y="392" type="line"/>
      <point x="544" y="512" type="line"/>
      <point x="56" y="512" type="line"/>
      <point x="56" y="392" type="line"/>
    </contour>
    <contour>
      <point x="544" y="168" type="line"/>
      <point x="544" y="288" type="line"/>
      <point x="56" y="288" type="line"/>
      <point x="56" y="168" type="line"/>
    </contour>
  </outline>
</glyph>
<glyph name="A" format="2">
  <advance width="680"/>
  <unicode hex="0041"/>
  <outline>
    <contour>
      <point x="264" y="700" type="line"/>
      <point x="19" y="0" type="line"/>
      <point x="164" y="0" type="line"/>
      <point x="383" y="644" type="line"/>
      <point x="300" y="644" type="line"/>
      <point x="516" y="0" type="line"/>
      <point x="662" y="0" type="line"/>
      <point x="420" y="700" type="line"/>
    </contour>
    <contour>
      <point x="165" y="272" type="line"/>
      <point x="165" y="150" type="line"/>
      <point x="514" y="150" type="line"/>
      <point x="514" y="272" type="line"/>
    </contour>
  </outline>
</glyph>
<glyph name="D" format="2">
  <advance width="760"/>
  <unicode hex="0044"/>
  <outline>
    <contour>
      <point x="142" y="123" type="line"/>
      <point x="142" y="0" type="line"/>
      <point x="361" y="0" type="line" smooth="yes"/>
      <point x="597" y="0"/>
      <point x="719" y="149"/>
      <point x="719" y="350" type="curve" smooth="yes"/>
      <point x="719" y="551"/>
      <point x="597" y="700"/>
      <point x="361" y="700" type="curve" smooth="yes"/>
      <point x="142" y="700" type="line"/>
      <point x="142" y="577" type="line"/>
      <point x="354" y="577" type="line" smooth="yes"/>
      <point x="475" y="577"/>
      <point x="564" y="506"/>
      <point x="564" y="350" type="curve" smooth="yes"/>
      <point x="564" y="194"/>
      <point x="475" y="123"/>
      <point x="354" y="123" type="curve" smooth="yes"/>
    </contour>
    <contour>
      <point x="79" y="0" type="line"/>
      <point x="229" y="0" type="line"/>
      <point x="229" y="700" type="line"/>
      <point x="79" y="700" type="line"/>
    </contour>
  </outline>
</glyph>
<glyph name="G" format="2">
  <advance width="760"/>
  <unicode hex="0047"/>
  <outline>
    <contour>
      <point x="398" y="712" type="curve" smooth="yes"/>
      <point x="200" y="712"/>
      <point x="55" y="568"/>
      <point x="55" y="350" type="curve" smooth="yes"/>
      <point x="55" y="132"/>
      <point x="196" y="-12"/>
      <point x="379" y="-12" type="curve" smooth="yes"/>
      <point x="494" y="-12"/>
      <point x="587" y="48"/>
      <point x="615" y="144" type="curve"/>
      <point x="579" y="144" type="line"/>
      <point x="579" y="0" type="line"/>
      <point x="701" y="0" type="line"/>
      <point x="701" y="382" type="line"/>
      <point x="425" y="382" type="line"/>
      <point x="425" y="268" type="line"/>
      <point x="620" y="268" type="line"/>
      <point x="580" y="311" type="line"/>
      <point x="580" y="286" type="line" smooth="yes"/>
      <point x="580" y="175"/>
      <point x="502" y="115"/>
      <point x="402" y="115" type="curve" smooth="yes"/>
      <point x="291" y="115"/>
      <point x="210" y="195"/>
      <point x="210" y="350" type="curve" smooth="yes"/>
      <point x="210" y="505"/>
      <point x="289" y="585"/>
      <point x="399" y="585" type="curve" smooth="yes"/>
      <point x="476" y="585"/>
      <point x="534" y="545"/>
      <point x="559" y="470" type="curve"/>
      <point x="690" y="512" type="line"/>
      <point x="653" y="625"/>
      <point x="553" y="712"/>
    </contour>
  </outline>
</glyph>
<glyph name="I" format="2">
  <advance width="350"/>
  <unicode hex="0049"/>
  <outline>
    <contour>
      <point x="100" y="124" type="line"/>
      <point x="100" y="0" type="line"/>
      <point x="251" y="0" type="line"/>
      <point x="251" y="124" type="line"/>
    </contour>
    <contour>
      <point x="100" y="700" type="line"/>
      <point x="100" y="576" type="line"/>
      <point x="251" y="576" type="line"/>
      <point x="251" y="700" type="line"/>
    </contour>
    <contour>
      <point x="100" y="700" type="line"/>
      <point x="100" y="0" type="line"/>
      <point x="251" y="0" type="line"/>
      <point x="251" y="700" type="line"/>
    </contour>
  </outline>
</glyph>
<glyph name="M" format="2">
  <advance width="760"/>
  <unicode hex="004D"/>
  <outline>
    <contour>
      <point x="177" y="597" type="line"/>
      <point x="355" y="168" type="line"/>
      <point x="404" y="168" type="line"/>
      <point x="591" y="626" type="line"/>
      <point x="552" y="626" type="line"/>
      <point x="552" y="0" type="line"/>
      <point x="693" y="0" type="line"/>
      <point x="693" y="700" type="line"/>
      <point x="507" y="700" type="line"/>
      <point x="370" y="366" type="line"/>
      <point x="391" y="366" type="line"/>
      <point x="253" y="700" type="line"/>
      <point x="67" y="700" type="line"/>
      <point x="67" y="0" type="line"/>
      <point x="208" y="0" type="line"/>
      <point x="208" y="623" type="line"/>
    </contour>
  </outline>
</glyph>
<glyph name="N" format="2">
  <advance width="760"/>
  <unicode hex="004E"/>
  <outline>
    <contour>
      <point x="609" y="118" type="line"/>
      <point x="273" y="700" type="line"/>
      <point x="75" y="700" type="line"/>
      <point x="75" y="0" type="line"/>
      <point x="221" y="0" type="line"/>
      <point x="219" y="580" type="line"/>
      <point x="184" y="580" type="line"/>
      <point x="519" y="0" type="line"/>
      <point x="685" y="0" type="line"/>
      <point x="685" y="700" type="line"/>
      <point x="540" y="700" type="line"/>
      <point x="540" y="118" type="line"/>
    </contour>
  </outline>
</glyph>
<glyph name="O" format="2">
  <advance width="760"/>
  <unicode hex="004F"/>
  <outline>
    <contour>
      <point x="380" y="712" type="curve" smooth="yes"/>
      <point x="182" y="712"/>
      <point x="41" y="566"/>
      <point x="41" y="350" type="curve" smooth="yes"/>
      <point x="41" y="134"/>
      <point x="182" y="-12"/>
      <point x="380" y="-12" type="curve" smooth="yes"/>
      <point x="578" y="-12"/>
      <point x="719" y="134"/>
      <point x="719" y="350" type="curve" smooth="yes"/>
      <point x="719" y="566"/>
      <point x="578" y="712"/>
    </contour>
    <contour>
      <point x="380" y="116" type="curve" smooth="yes"/>
      <point x="272" y="116"/>
      <point x="196" y="200"/>
      <point x="196" y="350" type="curve" smooth="yes"/>
      <point x="196" y="500"/>
      <point x="272" y="584"/>
      <point x="380" y="584" type="curve" smooth="yes"/>
      <point x="488" y="584"/>
      <point x="564" y="500"/>
      <point x="564" y="350" type="curve" smooth="yes"/>
      <point x="564" y="200"/>
      <point x="488" y="116"/>
    </contour>
  </outline>
</glyph>
<glyph name="W" format="2">
  <advance width="760"/>
  <unicode hex="0057"/>
  <outline>
    <contour>
      <point x="618" y="0" type="line"/>
      <point x="733" y="700" type="line"/>
      <point x="597" y="700" type="line"/>
      <point x="508" y="114" type="line"/>
      <point x="563" y="114" type="line"/>
      <point x="438" y="560" type="line"/>
      <point x="324" y="560" type="line"/>
      <point x="201" y="114" type="line"/>
      <point x="257" y="114" type="line"/>
      <point x="169" y="700" type="line"/>
      <point x="27" y="700" type="line"/>
      <point x="142" y="0" type="line"/>
      <point x="271" y="0" type="line"/>
      <point x="404" y="491" type="line"/>
      <point x="354" y="491" type="line"/>
      <point x="489" y="0" type="line"/>
    </contour>
  </outline>
</glyph>
<glyph name="Z" format="2">
  <advance width="600"/>
  <unicode hex="005A"/>
  <outline>
    <contour>
      <point x="57" y="0" type="line"/>
      <point x="547" y="0" type="line"/>
      <point x="547" y="124" type="line"/>
      <point x="136" y="124" type="line"/>
      <point x="198" y="60" type="line"/>
      <point x="541" y="602" type="line"/>
      <point x="541" y="700" type="line"/>
      <point x="55" y="700" type="line"/>
      <point x="55" y="576" type="line"/>
      <point x="467" y="576" type="line"/>
      <point x="389" y="623" type="line"/>
      <point x="57" y="99" type="line"/>
    </contour>
  </outline>
</glyph>
<glyph name="a" format="2">
  <advance width="600"/>
  <unicode hex="0061"/>
  <outline>
    <contour>
      <point x="53" y="147" type="curve" smooth="yes"/>
      <point x="53" y="50"/>
      <point x="124" y="-12"/>
      <point x="236" y="-12" type="curve" smooth="yes"/>
      <point x="331" y="-12"/>
      <point x="395" y="22"/>
      <point x="429" y="101" type="curve"/>
      <point x="396" y="100" type="line"/>
      <point x="402" y="14"/>
      <point x="456" y="-7"/>
      <point x="522" y="-7" type="curve" smooth="yes"/>
      <point x="537" y="-7"/>
      <point x="547" y="-6"/>
      <point x="559" y="-4" type="curve"/>
      <point x="559" y="100" type="line"/>
      <point x="556" y="100"/>
      <point x="555" y="100"/>
      <point x="551" y="100" type="curve" smooth="yes"/>
      <point x="534" y="100"/>
      <point x="522" y="108"/>
      <point x="522" y="133" type="curve" smooth="yes"/>
      <point x="522" y="343" type="line" smooth="yes"/>
      <point x="522" y="451"/>
      <point x="446" y="512"/>
      <point x="299" y="512" type="curve" smooth="yes"/>
      <point x="142" y="512"/>
      <point x="80" y="431"/>
      <point x="73" y="349" type="curve"/>
      <point x="211" y="325" type="line"/>
      <point x="212" y="376"/>
      <point x="241" y="405"/>
      <point x="300" y="405" type="curve" smooth="yes"/>
      <point x="362" y="405"/>
      <point x="385" y="379"/>
      <point x="385" y="333" type="curve" smooth="yes"/>
      <point x="385" y="187" type="line" smooth="yes"/>
      <point x="385" y="129"/>
      <point x="340" y="91"/>
      <point x="265" y="91" type="curve" smooth="yes"/>
      <point x="218" y="91"/>
      <point x="192" y="114"/>
      <point x="192" y="147" type="curve" smooth="yes"/>
      <point x="192" y="183"/>
      <point x="222" y="201"/>
      <point x="266" y="206" type="curve" smooth="yes"/>
      <point x="455" y="228" type="line"/>
      <point x="455" y="322" type="line"/>
      <point x="208" y="294" type="line" smooth="yes"/>
      <point x="123" y="284"/>
      <point x="53" y="238"/>
    </contour>
  </outline>
</glyph>
<glyph name="b" format="2">
  <advance width="600"/>
  <unicode hex="0062"/>
  <outline>
    <contour>
      <point x="353" y="512" type="curve" smooth="yes"/>
      <point x="265" y="512"/>
      <point x="197" y="460"/>
      <point x="166" y="379" type="curve"/>
      <point x="199" y="379" type="line"/>
      <point x="199" y="700" type="line"/>
      <point x="59" y="700" type="line"/>
      <point x="59" y="0" type="line"/>
      <point x="199" y="0" type="line"/>
      <point x="199" y="119" type="line"/>
      <point x="166" y="119" type="line"/>
      <point x="197" y="38"/>
      <point x="265" y="-12"/>
      <point x="353" y="-12" type="curve" smooth="yes"/>
      <point x="464" y="-12"/>
      <point x="564" y="76"/>
      <point x="564" y="249" type="curve" smooth="yes"/>
      <point x="564" y="421"/>
      <point x="464" y="512"/>
    </contour>
    <contour>
      <point x="308" y="104" type="curve" smooth="yes"/>
      <point x="239" y="104"/>
      <point x="193" y="154"/>
      <point x="193" y="250" type="curve" smooth="yes"/>
      <point x="193" y="346"/>
      <point x="239" y="396"/>
      <point x="308" y="396" type="curve" smooth="yes"/>
      <point x="377" y="396"/>
      <point x="423" y="346"/>
      <point x="423" y="250" type="curve" smooth="yes"/>
      <point x="423" y="154"/>
      <point x="377" y="104"/>
    </contour>
  </outline>
</glyph>
<glyph name="c" format="2">
  <advance width="600"/>
  <unicode hex="0063"/>
  <outline>
    <contour>
      <point x="559" y="351" type="line"/>
      <point x="528" y="451"/>
      <point x="440" y="512"/>
      <point x="321" y="512" type="curve" smooth="yes"/>
      <point x="173" y="512"/>
      <point x="64" y="409"/>
      <point x="64" y="250" type="curve" smooth="yes"/>
      <point x="64" y="91"/>
      <point x="173" y="-12"/>
      <point x="321" y="-12" type="curve" smooth="yes"/>
      <point x="440" y="-12"/>
      <point x="527" y="44"/>
      <point x="559" y="147" type="curve"/>
      <point x="425" y="182" type="line"/>
      <point x="410" y="122"/>
      <point x="370" y="102"/>
      <point x="322" y="102" type="curve" smooth="yes"/>
      <point x="252" y="102"/>
      <point x="205" y="149"/>
      <point x="205" y="250" type="curve" smooth="yes"/>
      <point x="205" y="351"/>
      <point x="252" y="398"/>
      <point x="322" y="398" type="curve" smooth="yes"/>
      <point x="370" y="398"/>
      <point x="413" y="378"/>
      <point x="425" y="316" type="curve"/>
    </contour>
  </outline>
</glyph>
<glyph name="e" format="2">
  <advance width="600"/>
  <unicode hex="0065"/>
  <guideline x="285" y="488" angle="90" name="center" identifier="uWTI4HLmco"/>
  <outline>
    <contour>
      <point x="307" y="-12" type="curve" smooth="yes"/>
      <point x="423" y="-12"/>
      <point x="512" y="53"/>
      <point x="540" y="138" type="curve"/>
      <point x="414" y="172" type="line"/>
      <point x="395" y="122"/>
      <point x="356" y="98"/>
      <point x="307" y="98" type="curve" smooth="yes"/>
      <point x="228" y="98"/>
      <point x="187" y="148"/>
      <point x="187" y="250" type="curve" smooth="yes"/>
      <point x="187" y="352"/>
      <point x="233" y="400"/>
      <point x="305" y="400" type="curve" smooth="yes"/>
      <point x="372" y="400"/>
      <point x="409" y="350"/>
      <point x="409" y="252" type="curve"/>
      <point x="466" y="308" type="line"/>
      <point x="115" y="308" type="line"/>
      <point x="115" y="204" type="line"/>
      <point x="547" y="204" type="line"/>
      <point x="547" y="245" type="line" smooth="yes"/>
      <point x="547" y="404"/>
      <point x="451" y="512"/>
      <point x="306" y="512" type="curve" smooth="yes"/>
      <point x="158" y="512"/>
      <point x="47" y="412"/>
      <point x="47" y="250" type="curve" smooth="yes"/>
      <point x="47" y="92"/>
      <point x="153" y="-12"/>
    </contour>
  </outline>
</glyph>
<glyph name="f" format="2">
  <advance width="600"/>
  <unicode hex="0066"/>
  <outline>
    <contour>
      <point x="59" y="393" type="line"/>
      <point x="537" y="393" type="line"/>
      <point x="537" y="500" type="line"/>
      <point x="59" y="500" type="line"/>
    </contour>
    <contour>
      <point x="447" y="705" type="curve" smooth="yes"/>
      <point x="299" y="705"/>
      <point x="217" y="632"/>
      <point x="217" y="522" type="curve" smooth="yes"/>
      <point x="217" y="0" type="line"/>
      <point x="357" y="0" type="line"/>
      <point x="357" y="521" type="line" smooth="yes"/>
      <point x="357" y="565"/>
      <point x="397" y="594"/>
      <point x="462" y="594" type="curve" smooth="yes"/>
      <point x="488" y="594"/>
      <point x="513" y="592"/>
      <point x="537" y="588" type="curve"/>
      <point x="537" y="696" type="line"/>
      <point x="515" y="702"/>
      <point x="482" y="705"/>
    </contour>
  </outline>
</glyph>
<glyph name="g" format="2">
  <advance width="600"/>
  <unicode hex="0067"/>
  <guideline x="298" y="598" angle="90" name="center" identifier="TvjUtfbOfN"/>
  <outline>
    <contour>
      <point x="294" y="127" type="curve" smooth="yes"/>
      <point x="226" y="127"/>
      <point x="182" y="178"/>
      <point x="182" y="262" type="curve" smooth="yes"/>
      <point x="182" y="346"/>
      <point x="226" y="397"/>
      <point x="294" y="397" type="curve" smooth="yes"/>
      <point x="362" y="397"/>
      <point x="406" y="346"/>
      <point x="406" y="262" type="curve" smooth="yes"/>
      <point x="406" y="178"/>
      <point x="362" y="127"/>
    </contour>
    <contour>
      <point x="541" y="13" type="curve" smooth="yes"/>
      <point x="541" y="500" type="line"/>
      <point x="401" y="500" type="line"/>
      <point x="401" y="379" type="line"/>
      <point x="434" y="379" type="line"/>
      <point x="400" y="466"/>
      <point x="336" y="512"/>
      <point x="250" y="512" type="curve" smooth="yes"/>
      <point x="137" y="512"/>
      <point x="41" y="412"/>
      <point x="41" y="262" type="curve" smooth="yes"/>
      <point x="41" y="112"/>
      <point x="137" y="12"/>
      <point x="250" y="12" type="curve" smooth="yes"/>
      <point x="336" y="12"/>
      <point x="400" y="58"/>
      <point x="434" y="145" type="curve"/>
      <point x="401" y="145" type="line"/>
      <point x="401" y="11" type="line" smooth="yes"/>
      <point x="401" y="-51"/>
      <point x="363" y="-86"/>
      <point x="300" y="-86" type="curve" smooth="yes"/>
      <point x="236" y="-86"/>
      <point x="206" y="-51"/>
      <point x="200" y="-9" type="curve"/>
      <point x="51" y="-34" type="line"/>
      <point x="69" y="-124"/>
      <point x="146" y="-192"/>
      <point x="298" y="-192" type="curve" smooth="yes"/>
      <point x="441" y="-192"/>
      <point x="541" y="-122"/>
    </contour>
  </outline>
</glyph>
<glyph name="l" format="2">
  <advance width="350"/>
  <unicode hex="006C"/>
  <outline>
    <contour>
      <point x="105" y="107" type="line"/>
      <point x="105" y="0" type="line"/>
      <point x="245" y="0" type="line"/>
      <point x="245" y="107" type="line"/>
    </contour>
    <contour>
      <point x="105" y="700" type="line"/>
      <point x="105" y="593" type="line"/>
      <point x="245" y="593" type="line"/>
      <point x="245" y="700" type="line"/>
    </contour>
    <contour>
      <point x="105" y="700" type="line"/>
      <point x="105" y="0" type="line"/>
      <point x="245" y="0" type="line"/>
      <point x="245" y="700" type="line"/>
    </contour>
  </outline>
</glyph>
<glyph name="m" format="2">
  <advance width="760"/>
  <unicode hex="006D"/>
  <outline>
    <contour>
      <point x="393" y="324" type="line"/>
      <point x="448" y="324" type="line"/>
      <point x="448" y="368"/>
      <point x="473" y="397"/>
      <point x="510" y="397" type="curve" smooth="yes"/>
      <point x="548" y="397"/>
      <point x="563" y="370"/>
      <point x="563" y="333" type="curve" smooth="yes"/>
      <point x="563" y="0" type="line"/>
      <point x="694" y="0" type="line"/>
      <point x="694" y="370" type="line" smooth="yes"/>
      <point x="694" y="454"/>
      <point x="648" y="512"/>
      <point x="566" y="512" type="curve" smooth="yes"/>
      <point x="498" y="512"/>
      <point x="444" y="469"/>
      <point x="417" y="412" type="curve"/>
      <point x="393" y="411" type="line"/>
    </contour>
    <contour>
      <point x="72" y="500" type="line"/>
      <point x="72" y="0" type="line"/>
      <point x="203" y="0" type="line"/>
      <point x="203" y="324" type="line" smooth="yes"/>
      <point x="203" y="368"/>
      <point x="227" y="397"/>
      <point x="265" y="397" type="curve" smooth="yes"/>
      <point x="302" y="397"/>
      <point x="318" y="370"/>
      <point x="318" y="333" type="curve" smooth="yes"/>
      <point x="318" y="0" type="line"/>
      <point x="448" y="0" type="line"/>
      <point x="448" y="370" type="line" smooth="yes"/>
      <point x="448" y="454"/>
      <point x="403" y="512"/>
      <point x="321" y="512" type="curve" smooth="yes"/>
      <point x="254" y="512"/>
      <point x="206" y="466"/>
      <point x="182" y="410" type="curve"/>
      <point x="203" y="403" type="line"/>
      <point x="203" y="500" type="line"/>
    </contour>
  </outline>
</glyph>
<glyph name="n" format="2">
  <advance width="600"/>
  <unicode hex="006E"/>
  <guideline x="285" y="490" angle="90" name="center" identifier="KW3tVpH9a5"/>
  <outline>
    <contour>
      <point x="71" y="500" type="line"/>
      <point x="71" y="0" type="line"/>
      <point x="211" y="0" type="line"/>
      <point x="211" y="288" type="line" smooth="yes"/>
      <point x="211" y="348"/>
      <point x="249" y="391"/>
      <point x="311" y="391" type="curve" smooth="yes"/>
      <point x="375" y="391"/>
      <point x="400" y="346"/>
      <point x="400" y="295" type="curve" smooth="yes"/>
      <point x="400" y="0" type="line"/>
      <point x="540" y="0" type="line"/>
      <point x="540" y="334" type="line" smooth="yes"/>
      <point x="540" y="442"/>
      <point x="477" y="512"/>
      <point x="368" y="512" type="curve" smooth="yes"/>
      <point x="282" y="512"/>
      <point x="218" y="459"/>
      <point x="191" y="400" type="curve"/>
      <point x="211" y="402" type="line"/>
      <point x="211" y="500" type="line"/>
    </contour>
  </outline>
</glyph>
<glyph name="r" format="2">
  <advance width="350"/>
  <unicode hex="0072"/>
  <outline>
    <contour>
      <point x="40" y="500" type="line"/>
      <point x="40" y="0" type="line"/>
      <point x="180" y="0" type="line"/>
      <point x="180" y="194" type="line" smooth="yes"/>
      <point x="180" y="307"/>
      <point x="226" y="374"/>
      <point x="309" y="374" type="curve" smooth="yes"/>
      <point x="321" y="374"/>
      <point x="329" y="373"/>
      <point x="340" y="371" type="curve"/>
      <point x="340" y="507" type="line"/>
      <point x="333" y="509"/>
      <point x="328" y="510"/>
      <point x="318" y="510" type="curve" smooth="yes"/>
      <point x="239" y="510"/>
      <point x="185" y="444"/>
      <point x="157" y="347" type="curve"/>
      <point x="180" y="347" type="line"/>
      <point x="180" y="500" type="line"/>
    </contour>
  </outline>
</glyph>
<glyph name="v" format="2">
  <advance width="600"/>
  <unicode hex="0076"/>
  <outline>
    <contour>
      <point x="223" y="0" type="line"/>
      <point x="378" y="0" type="line"/>
      <point x="579" y="500" type="line"/>
      <point x="431" y="500" type="line"/>
      <point x="257" y="39" type="line"/>
      <point x="345" y="39" type="line"/>
      <point x="169" y="500" type="line"/>
      <point x="21" y="500" type="line"/>
    </contour>
  </outline>
</glyph>
<glyph name="y" format="2">
  <advance width="600"/>
  <unicode hex="0079"/>
  <outline>
    <contour>
      <point x="307" y="-180" type="line"/>
      <point x="579" y="500" type="line"/>
      <point x="431" y="500" type="line"/>
      <point x="265" y="58" type="line"/>
      <point x="249" y="32" type="line"/>
      <point x="157" y="-180" type="line"/>
    </contour>
    <contour>
      <point x="21" y="500" type="line"/>
      <point x="248" y="-61" type="line"/>
      <point x="316" y="116" type="line"/>
      <point x="169" y="500" type="line"/>
    </contour>
  </outline>
</glyph>
<glyph name="braceleft" format="2">
  <advance width="600"/>
  <unicode hex="007B"/>
  <outline>
    <contour>
      <point x="365" y="172" type="line"/>
      <point x="365" y="251"/>
      <point x="352" y="296"/>
      <point x="283" y="316" type="curve"/>
      <point x="352" y="336"/>
      <point x="365" y="381"/>
      <point x="365" y="460" type="curve" smooth="yes"/>
      <point x="365" y="556" type="line" smooth="yes"/>
      <point x="365" y="613"/>
      <point x="392" y="642"/>
      <point x="457" y="642" type="curve" smooth="yes"/>
      <point x="483" y="642" type="line"/>
      <point x="483" y="745" type="line"/>
      <point x="442" y="745" type="line" smooth="yes"/>
      <point x="289" y="745"/>
      <point x="220" y="679"/>
      <point x="220" y="564" type="curve" smooth="yes"/>
      <point x="220" y="460" type="line" smooth="yes"/>
      <point x="220" y="397"/>
      <point x="204" y="375"/>
      <point x="151" y="375" type="curve" smooth="yes"/>
      <point x="118" y="375" type="line"/>
      <point x="118" y="257" type="line"/>
      <point x="151" y="257" type="line" smooth="yes"/>
      <point x="204" y="257"/>
      <point x="220" y="235"/>
      <point x="220" y="172" type="curve" smooth="yes"/>
      <point x="220" y="68" type="line" smooth="yes"/>
      <point x="220" y="-48"/>
      <point x="251" y="-113"/>
      <point x="442" y="-113" type="curve" smooth="yes"/>
      <point x="483" y="-113" type="line"/>
      <point x="483" y="-9" type="line"/>
      <point x="457" y="-9" type="line" smooth="yes"/>
      <point x="392" y="-9"/>
      <point x="365" y="17"/>
      <point x="365" y="75" type="curve" smooth="yes"/>
    </contour>
  </outline>
</glyph>
<glyph name="brokenbar" format="2">
  <advance width="350"/>
  <unicode hex="00A6"/>
  <outline>
    <contour>
      <point x="104" y="745" type="line"/>
      <point x="104" y="367" type="line"/>
      <point x="247" y="367" type="line"/>
      <point x="247" y="745" type="line"/>
    </contour>
    <contour>
      <point x="104" y="265" type="line"/>
      <point x="104" y="-113" type="line"/>
      <point x="247" y="-113" type="line"/>
      <point x="247" y="265" type="line"/>
    </contour>
  </outline>
</glyph>
<glyph name="degree" format="2">
  <advance width="350"/>
  <unicode hex="00B0"/>
  <outline>
    <contour>
      <point x="31" y="566" type="curve" smooth="yes"/>
      <point x="31" y="486"/>
      <point x="95" y="424"/>
      <point x="175" y="424" type="curve" smooth="yes"/>
      <point x="255" y="424"/>
      <point x="319" y="486"/>
      <point x="319" y="566" type="curve" smooth="yes"/>
      <point x="319" y="646"/>
      <point x="255" y="708"/>
      <point x="175" y="708" type="curve" smooth="yes"/>
      <point x="95" y="708"/>
      <point x="31" y="646"/>
    </contour>
    <contour>
      <point x="224" y="566" type="curve" smooth="yes"/>
      <point x="224" y="535"/>
      <point x="203" y="515"/>
      <point x="175" y="515" type="curve" smooth="yes"/>
      <point x="147" y="515"/>
      <point x="126" y="535"/>
      <point x="126" y="566" type="curve" smooth="yes"/>
      <point x="126" y="597"/>
      <point x="147" y="617"/>
      <point x="175" y="617" type="curve" smooth="yes"/>
      <point x="203" y="617"/>
      <point x="224" y="597"/>
    </contour>
  </outline>
</glyph>
<glyph name="plusminus" format="2">
  <advance width="600"/>
  <unicode hex="00B1"/>
  <outline>
    <contour>
      <point x="544" y="361" type="line"/>
      <point x="544" y="481" type="line"/>
      <point x="56" y="481" type="line"/>
      <point x="56" y="361" type="line"/>
    </contour>
    <contour>
      <point x="363" y="667" type="line"/>
      <point x="237" y="667" type="line"/>
      <point x="237" y="175" type="line"/>
      <point x="363" y="175" type="line"/>
    </contour>
    <contour>
      <point x="544" y="0" type="line"/>
      <point x="544" y="120" type="line"/>
      <point x="56" y="120" type="line"/>
      <point x="56" y="0" type="line"/>
    </contour>
  </outline>
</glyph>
<glyph name="paragraph" format="2">
  <advance width="680"/>
  <unicode hex="00B6"/>
  <outline>
    <contour>
      <point x="372" y="280" type="line"/>
      <point x="372" y="610" type="line"/>
      <point x="655" y="610" type="line"/>
      <point x="655" y="700" type="line"/>
      <point x="251" y="700" type="line" smooth="yes"/>
      <point x="119" y="700"/>
      <point x="30" y="617"/>
      <point x="30" y="490" type="curve" smooth="yes"/>
      <point x="30" y="363"/>
      <point x="119" y="280"/>
      <point x="251" y="280" type="curve" smooth="yes"/>
    </contour>
    <contour>
      <point x="429" y="700" type="line"/>
      <point x="317" y="700" type="line"/>
      <point x="317" y="-113" type="line"/>
      <point x="429" y="-113" type="line"/>
    </contour>
    <contour>
      <point x="591" y="700" type="line"/>
      <point x="479" y="700" type="line"/>
      <point x="479" y="-113" type="line"/>
      <point x="591" y="-113" type="line"/>
    </contour>
  </outline>
</glyph>
<glyph name="guillemetright" format="2">
  <advance width="600"/>
  <unicode hex="00BB"/>
  <outline>
    <contour>
      <point x="266" y="450" type="line"/>
      <point x="404" y="450" type="line"/>
      <point x="544" y="276" type="line"/>
      <point x="544" y="234" type="line"/>
      <point x="404" y="60" type="line"/>
      <point x="266" y="60" type="line"/>
      <point x="443" y="280" type="line"/>
      <point x="443" y="230" type="line"/>
    </contour>
    <contour>
      <point x="57" y="450" type="line"/>
      <point x="195" y="450" type="line"/>
      <point x="335" y="276" type="line"/>
      <point x="335" y="234" type="line"/>
      <point x="195" y="60" type="line"/>
      <point x="57" y="60" type="line"/>
      <point x="234" y="280" type="line"/>
      <point x="234" y="230" type="line"/>
    </contour>
  </outline>
</glyph>
<glyph name="AE" format="2">
  <advance width="760"/>
  <unicode hex="00C6"/>
  <outline>
    <contour>
      <point x="217" y="700" type="line"/>
      <point x="26" y="0" type="line"/>
      <point x="170" y="0" type="line"/>
      <point x="323" y="576" type="line"/>
      <point x="396" y="576" type="line"/>
      <point x="396" y="700" type="line"/>
    </contour>
    <contour>
      <point x="155" y="283" type="line"/>
      <point x="155" y="161" type="line"/>
      <point x="423" y="161" type="line"/>
      <point x="423" y="283" type="line"/>
    </contour>
    <contour>
      <point x="423" y="417" type="line"/>
      <point x="423" y="294" type="line"/>
      <point x="634" y="294" type="line"/>
      <point x="634" y="417" type="line"/>
    </contour>
    <contour>
      <point x="417" y="124" type="line"/>
      <point x="417" y="0" type="line"/>
      <point x="720" y="0" type="line"/>
      <point x="720" y="124" type="line"/>
    </contour>
    <contour>
      <point x="413" y="700" type="line"/>
      <point x="413" y="576" type="line"/>
      <point x="702" y="576" type="line"/>
      <point x="702" y="700" type="line"/>
    </contour>
    <contour>
      <point x="355" y="700" type="line"/>
      <point x="355" y="0" type="line"/>
      <point x="494" y="0" type="line"/>
      <point x="494" y="700" type="line"/>
    </contour>
  </outline>
</glyph>
<glyph name="Eth" format="2">
  <advance width="760"/>
  <unicode hex="00D0"/>
  <outline>
    <contour>
      <point x="160" y="123" type="line"/>
      <point x="160" y="0" type="line"/>
      <point x="361" y="0" type="line" smooth="yes"/>
      <point x="597" y="0"/>
      <point x="719" y="149"/>
      <point x="719" y="350" type="curve" smooth="yes"/>
      <point x="719" y="551"/>
      <point x="597" y="700"/>
      <point x="361" y="700" type="curve" smooth="yes"/>
      <point x="160" y="700" type="line"/>
      <point x="160" y="577" type="line"/>
      <point x="354" y="577" type="line" smooth="yes"/>
      <point x="475" y="577"/>
      <point x="564" y="506"/>
      <point x="564" y="350" type="curve" smooth="yes"/>
      <point x="564" y="194"/>
      <point x="475" y="123"/>
      <point x="354" y="123" type="curve" smooth="yes"/>
    </contour>
    <contour>
      <point x="97" y="0" type="line"/>
      <point x="247" y="0" type="line"/>
      <point x="247" y="700" type="line"/>
      <point x="97" y="700" type="line"/>
    </contour>
    <contour>
      <point x="35" y="297" type="line"/>
      <point x="406" y="297" type="line"/>
      <point x="406" y="418" type="line"/>
      <point x="35" y="418" type="line"/>
    </contour>
  </outline>
</glyph>
<glyph name="Oslash" format="2">
  <advance width="760"/>
  <unicode hex="00D8"/>
  <outline>
    <contour>
      <point x="46" y="47" type="line"/>
      <point x="137" y="-32" type="line"/>
      <point x="714" y="654" type="line"/>
      <point x="623" y="733" type="line"/>
    </contour>
    <contour>
      <point x="380" y="712" type="curve" smooth="yes"/>
      <point x="182" y="712"/>
      <point x="41" y="566"/>
      <point x="41" y="350" type="curve" smooth="yes"/>
      <point x="41" y="134"/>
      <point x="182" y="-12"/>
      <point x="380" y="-12" type="curve" smooth="yes"/>
      <point x="578" y="-12"/>
      <point x="719" y="134"/>
      <point x="719" y="350" type="curve" smooth="yes"/>
      <point x="719" y="566"/>
      <point x="578" y="712"/>
    </contour>
    <contour>
      <point x="380" y="116" type="curve" smooth="yes"/>
      <point x="272" y="116"/>
      <point x="196" y="200"/>
      <point x="196" y="350" type="curve" smooth="yes"/>
      <point x="196" y="500"/>
      <point x="272" y="584"/>
      <point x="380" y="584" type="curve" smooth="yes"/>
      <point x="488" y="584"/>
      <point x="564" y="500"/>
      <point x="564" y="350" type="curve" smooth="yes"/>
      <point x="564" y="200"/>
      <point x="488" y="116"/>
    </contour>
  </outline>
</glyph>
<glyph name="Thorn" format="2">
  <advance width="680"/>
  <unicode hex="00DE"/>
  <outline>
    <contour>
      <point x="67" y="700" type="line"/>
      <point x="67" y="0" type="line"/>
      <point x="217" y="0" type="line"/>
      <point x="217" y="700" type="line"/>
    </contour>
    <contour>
      <point x="392" y="440" type="line" smooth="yes"/>
      <point x="458" y="440"/>
      <point x="493" y="409"/>
      <point x="493" y="355" type="curve" smooth="yes"/>
      <point x="493" y="301"/>
      <point x="458" y="270"/>
      <point x="392" y="270" type="curve" smooth="yes"/>
      <point x="140" y="270" type="line"/>
      <point x="140" y="147" type="line"/>
      <point x="407" y="147" type="line" smooth="yes"/>
      <point x="579" y="147"/>
      <point x="645" y="235"/>
      <point x="645" y="355" type="curve" smooth="yes"/>
      <point x="645" y="475"/>
      <point x="579" y="563"/>
      <point x="407" y="563" type="curve" smooth="yes"/>
      <point x="140" y="563" type="line"/>
      <point x="140" y="440" type="line"/>
    </contour>
  </outline>
</glyph>
<glyph name="germandbls" format="2">
  <advance width="600"/>
  <unicode hex="00DF"/>
  <outline>
    <contour>
      <point x="71" y="506" type="curve" smooth="yes"/>
      <point x="71" y="0" type="line"/>
      <point x="211" y="0" type="line"/>
      <point x="211" y="506" type="line" smooth="yes"/>
      <point x="211" y="559"/>
      <point x="247" y="603"/>
      <point x="311" y="603" type="curve" smooth="yes"/>
      <point x="362" y="603"/>
      <point x="399" y="575"/>
      <point x="399" y="519" type="curve" smooth="yes"/>
      <point x="399" y="456"/>
      <point x="363" y="423"/>
      <point x="293" y="423" type="curve" smooth="yes"/>
      <point x="267" y="423" type="line"/>
      <point x="267" y="316" type="line"/>
      <point x="317" y="316" type="line" smooth="yes"/>
      <point x="380" y="316"/>
      <point x="435" y="286"/>
      <point x="435" y="212" type="curve" smooth="yes"/>
      <point x="435" y="142"/>
      <point x="393" y="101"/>
      <point x="325" y="101" type="curve" smooth="yes"/>
      <point x="300" y="101"/>
      <point x="278" y="107"/>
      <point x="262" y="114" type="curve"/>
      <point x="262" y="1" type="line"/>
      <point x="276" y="-4"/>
      <point x="313" y="-12"/>
      <point x="354" y="-12" type="curve" smooth="yes"/>
      <point x="502" y="-12"/>
      <point x="576" y="91"/>
      <point x="576" y="202" type="curve" smooth="yes"/>
      <point x="576" y="311"/>
      <point x="501" y="360"/>
      <point x="439" y="377" type="curve"/>
      <point x="439" y="371" type="line"/>
      <point x="480" y="384"/>
      <point x="539" y="429"/>
      <point x="539" y="529" type="curve" smooth="yes"/>
      <point x="539" y="643"/>
      <point x="449" y="712"/>
      <point x="310" y="712" type="curve" smooth="yes"/>
      <point x="163" y="712"/>
      <point x="71" y="625"/>
    </contour>
  </outline>
</glyph>
<glyph name="eth" format="2">
  <advance width="600"/>
  <unicode hex="00F0"/>
  <outline>
    <contour>
      <point x="300" y="376" type="curve" smooth="yes"/>
      <point x="373" y="376"/>
      <point x="415" y="324"/>
      <point x="415" y="240" type="curve" smooth="yes"/>
      <point x="415" y="156"/>
      <point x="373" y="104"/>
      <point x="300" y="104" type="curve" smooth="yes"/>
      <point x="228" y="104"/>
      <point x="187" y="156"/>
      <point x="187" y="240" type="curve" smooth="yes"/>
      <point x="187" y="324"/>
      <point x="228" y="376"/>
    </contour>
    <contour>
      <point x="300" y="-12" type="curve" smooth="yes"/>
      <point x="438" y="-12"/>
      <point x="556" y="83"/>
      <point x="556" y="266" type="curve" smooth="yes"/>
      <point x="556" y="505"/>
      <point x="410" y="641"/>
      <point x="251" y="711" type="curve"/>
      <point x="115" y="689" type="line"/>
      <point x="250" y="602"/>
      <point x="346" y="542"/>
      <point x="400" y="412" type="curve"/>
      <point x="405" y="412" type="line"/>
      <point x="372" y="463"/>
      <point x="317" y="492"/>
      <point x="259" y="492" type="curve" smooth="yes"/>
      <point x="150" y="492"/>
      <point x="46" y="391"/>
      <point x="46" y="246" type="curve" smooth="yes"/>
      <point x="46" y="92"/>
      <point x="154" y="-12"/>
    </contour>
    <contour>
      <point x="170" y="497" type="line"/>
      <point x="489" y="632" type="line"/>
      <point x="462" y="700" type="line"/>
      <point x="143" y="565" type="line"/>
    </contour>
  </outline>
</glyph>
<glyph name="dcroat" format="2">
  <advance width="600"/>
  <unicode hex="0111"/>
  <outline>
    <contour>
      <point x="273" y="547" type="line"/>
      <point x="591" y="547" type="line"/>
      <point x="591" y="627" type="line"/>
      <point x="273" y="627" type="line"/>
    </contour>
    <component base="d" xOffset="-10" identifier="4933D166"/>
  </outline>
</glyph>
<glyph name="eogonek" format="2">
  <advance width="600"/>
  <unicode hex="0119"/>
  <outline>
    <contour>
      <point x="320" y="-203" type="curve" smooth="yes"/>
      <point x="343" y="-203"/>
      <point x="378" y="-198"/>
      <point x="403" y="-188" type="curve"/>
      <point x="397" y="-106" type="line"/>
      <point x="379" y="-111"/>
      <point x="365" y="-114"/>
      <point x="349" y="-114" type="curve" smooth="yes"/>
      <point x="319" y="-114"/>
      <point x="304" y="-104"/>
      <point x="304" y="-85" type="curve" smooth="yes"/>
      <point x="304" y="-61"/>
      <point x="319" y="-22"/>
      <point x="384" y="-3" type="curve" smooth="yes"/>
      <point x="458" y="19"/>
      <point x="518" y="73"/>
      <point x="540" y="138" type="curve"/>
      <point x="414" y="172" type="line"/>
      <point x="395" y="122"/>
      <point x="356" y="98"/>
      <point x="307" y="98" type="curve" smooth="yes"/>
      <point x="241" y="98"/>
      <point x="201" y="133"/>
      <point x="190" y="204" type="curve"/>
      <point x="547" y="204" type="line"/>
      <point x="547" y="245" type="line" smooth="yes"/>
      <point x="547" y="404"/>
      <point x="451" y="512"/>
      <point x="306" y="512" type="curve" smooth="yes"/>
      <point x="158" y="512"/>
      <point x="47" y="412"/>
      <point x="47" y="250" type="curve" smooth="yes"/>
      <point x="47" y="99"/>
      <point x="145" y="-4"/>
      <point x="289" y="-12" type="curve"/>
      <point x="294" y="-12"/>
      <point x="298" y="-12"/>
      <point x="303" y="-12" type="curve"/>
      <point x="290" y="11" type="line"/>
      <point x="226" y="-27"/>
      <point x="191" y="-71"/>
      <point x="191" y="-118" type="curve" smooth="yes"/>
      <point x="191" y="-171"/>
      <point x="232" y="-203"/>
    </contour>
    <contour>
      <point x="305" y="400" type="curve" smooth="yes"/>
      <point x="358" y="400"/>
      <point x="392" y="369"/>
      <point x="404" y="308" type="curve"/>
      <point x="193" y="308" type="line"/>
      <point x="208" y="370"/>
      <point x="248" y="400"/>
    </contour>
  </outline>
</glyph>
<glyph name="imacron" format="2">
  <advance width="350"/>
  <unicode hex="012B"/>
  <outline>
    <contour>
      <point x="20" y="587" type="line"/>
      <point x="330" y="587" type="line"/>
      <point x="330" y="688" type="line"/>
      <point x="20" y="688" type="line"/>
    </contour>
    <component base="dotlessi"/>
  </outline>
</glyph>
<glyph name="ibreve" format="2">
  <advance width="350"/>
  <unicode hex="012D"/>
  <outline>
    <contour>
      <point x="17" y="700" type="line"/>
      <point x="17" y="629"/>
      <point x="69" y="559"/>
      <point x="175" y="559" type="curve" smooth="yes"/>
      <point x="281" y="559"/>
      <point x="333" y="629"/>
      <point x="333" y="700" type="curve"/>
      <point x="226" y="700" type="line"/>
      <point x="226" y="670"/>
      <point x="208" y="648"/>
      <point x="175" y="648" type="curve" smooth="yes"/>
      <point x="142" y="648"/>
      <point x="124" y="670"/>
      <point x="124" y="700" type="curve"/>
    </contour>
    <component base="dotlessi"/>
  </outline>
</glyph>
<glyph name="IJ" format="2">
  <advance width="760"/>
  <unicode hex="0132"/>
  <outline>
    <contour>
      <point x="479" y="109" type="curve" smooth="yes"/>
      <point x="434" y="109"/>
      <point x="408" y="135"/>
      <point x="407" y="183" type="curve"/>
      <point x="257" y="200" type="line"/>
      <point x="258" y="59"/>
      <point x="345" y="-12"/>
      <point x="481" y="-12" type="curve" smooth="yes"/>
      <point x="613" y="-12"/>
      <point x="695" y="64"/>
      <point x="695" y="180" type="curve" smooth="yes"/>
      <point x="695" y="700" type="line"/>
      <point x="545" y="700" type="line"/>
      <point x="545" y="184" type="line" smooth="yes"/>
      <point x="545" y="143"/>
      <point x="526" y="109"/>
    </contour>
    <contour>
      <point x="65" y="700" type="line"/>
      <point x="65" y="0" type="line"/>
      <point x="216" y="0" type="line"/>
      <point x="216" y="700" type="line"/>
    </contour>
  </outline>
</glyph>
<glyph name="Eng" format="2">
  <advance width="760"/>
  <unicode hex="014A"/>
  <outline>
    <contour>
      <point x="629" y="118" type="line"/>
      <point x="273" y="700" type="line"/>
      <point x="75" y="700" type="line"/>
      <point x="75" y="0" type="line"/>
      <point x="221" y="0" type="line"/>
      <point x="221" y="580" type="line"/>
      <point x="186" y="580" type="line"/>
      <point x="541" y="0" type="line"/>
      <point x="685" y="0" type="line"/>
      <point x="685" y="700" type="line"/>
      <point x="540" y="700" type="line"/>
      <point x="540" y="118" type="line"/>
    </contour>
    <contour>
      <point x="448" y="-71" type="curve" smooth="yes"/>
      <point x="414" y="-71"/>
      <point x="385" y="-65"/>
      <point x="363" y="-60" type="curve"/>
      <point x="363" y="-177" type="line"/>
      <point x="397" y="-186"/>
      <point x="442" y="-192"/>
      <point x="484" y="-192" type="curve" smooth="yes"/>
      <point x="616" y="-192"/>
      <point x="685" y="-129"/>
      <point x="685" y="-5" type="curve" smooth="yes"/>
      <point x="685" y="80" type="line"/>
      <point x="538" y="80" type="line"/>
      <point x="538" y="-7" type="line" smooth="yes"/>
      <point x="538" y="-45"/>
      <point x="518" y="-71"/>
    </contour>
  </outline>
</glyph>
<glyph name="Tbar" format="2">
  <advance width="680"/>
  <unicode hex="0166"/>
  <outline>
    <contour>
      <point x="117" y="281" type="line"/>
      <point x="558" y="281" type="line"/>
      <point x="558" y="403" type="line"/>
      <point x="117" y="403" type="line"/>
    </contour>
    <component base="T" identifier="341D416B"/>
  </outline>
</glyph>
<glyph name="Uogonek" format="2">
  <advance width="760"/>
  <unicode hex="0172"/>
  <outline>
    <contour>
      <point x="412" y="-203" type="curve" smooth="yes"/>
      <point x="435" y="-203"/>
      <point x="470" y="-200"/>
      <point x="495" y="-193" type="curve"/>
      <point x="495" y="-106" type="line"/>
      <point x="475" y="-111"/>
      <point x="459" y="-114"/>
      <point x="441" y="-114" type="curve" smooth="yes"/>
      <point x="411" y="-114"/>
      <point x="396" y="-104"/>
      <point x="396" y="-85" type="curve" smooth="yes"/>
      <point x="396" y="-56"/>
      <point x="434" y="-20"/>
      <point x="490" y="-1" type="curve" smooth="yes"/>
      <point x="618" y="43"/>
      <point x="684" y="132"/>
      <point x="684" y="269" type="curve" smooth="yes"/>
      <point x="684" y="700" type="line"/>
      <point x="539" y="700" type="line"/>
      <point x="539" y="277" type="line" smooth="yes"/>
      <point x="539" y="181"/>
      <point x="480" y="117"/>
      <point x="381" y="117" type="curve" smooth="yes"/>
      <point x="282" y="117"/>
      <point x="222" y="181"/>
      <point x="222" y="277" type="curve" smooth="yes"/>
      <point x="222" y="700" type="line"/>
      <point x="76" y="700" type="line"/>
      <point x="76" y="269" type="line" smooth="yes"/>
      <point x="76" y="99"/>
      <point x="188" y="-12"/>
      <point x="382" y="-12" type="curve" smooth="yes"/>
      <point x="388" y="-12"/>
      <point x="395" y="-12"/>
      <point x="402" y="-12" type="curve"/>
      <point x="377" y="9" type="line"/>
      <point x="342" y="-10"/>
      <point x="283" y="-54"/>
      <point x="283" y="-116" type="curve" smooth="yes"/>
      <point x="283" y="-170"/>
      <point x="327" y="-203"/>
    </contour>
  </outline>
</glyph>
<glyph name="Bhook" format="2">
  <advance width="760"/>
  <unicode hex="0181"/>
  <outline>
    <contour>
      <point x="237" y="700" type="line"/>
      <point x="237" y="0" type="line"/>
      <point x="386" y="0" type="line"/>
      <point x="386" y="700" type="line"/>
    </contour>
    <contour>
      <point x="491" y="0" type="line" smooth="yes"/>
      <point x="648" y="0"/>
      <point x="732" y="97"/>
      <point x="732" y="209" type="curve" smooth="yes"/>
      <point x="732" y="304"/>
      <point x="672" y="350"/>
      <point x="613" y="374" type="curve"/>
      <point x="613" y="356" type="line"/>
      <point x="667" y="374"/>
      <point x="717" y="420"/>
      <point x="717" y="503" type="curve" smooth="yes"/>
      <point x="717" y="613"/>
      <point x="637" y="700"/>
      <point x="491" y="700" type="curve" smooth="yes"/>
      <point x="302" y="700" type="line"/>
      <point x="302" y="577" type="line"/>
      <point x="480" y="577" type="line" smooth="yes"/>
      <point x="533" y="577"/>
      <point x="573" y="551"/>
      <point x="573" y="500" type="curve" smooth="yes"/>
      <point x="573" y="448"/>
      <point x="537" y="420"/>
      <point x="484" y="420" type="curve" smooth="yes"/>
      <point x="301" y="420" type="line"/>
      <point x="301" y="298" type="line"/>
      <point x="481" y="298" type="line" smooth="yes"/>
      <point x="532" y="298"/>
      <point x="583" y="272"/>
      <point x="583" y="210" type="curve" smooth="yes"/>
      <point x="583" y="149"/>
      <point x="536" y="123"/>
      <point x="481" y="123" type="curve" smooth="yes"/>
      <point x="302" y="123" type="line"/>
      <point x="302" y="0" type="line"/>
    </contour>
    <contour>
      <point x="323" y="700" type="line"/>
      <point x="230" y="700" type="line" smooth="yes"/>
      <point x="70" y="700"/>
      <point x="7" y="588"/>
      <point x="7" y="488" type="curve" smooth="yes"/>
      <point x="7" y="437"/>
      <point x="24" y="401"/>
      <point x="43" y="371" type="curve"/>
      <point x="182" y="376" type="line"/>
      <point x="160" y="411"/>
      <point x="147" y="445"/>
      <point x="147" y="483" type="curve" smooth="yes"/>
      <point x="147" y="532"/>
      <point x="176" y="576"/>
      <point x="234" y="576" type="curve" smooth="yes"/>
      <point x="323" y="576" type="line"/>
    </contour>
  </outline>
</glyph>
<glyph name="Oopen" format="2">
  <advance width="760"/>
  <unicode hex="0186"/>
  <outline>
    <contour>
      <point x="50" y="487" type="curve"/>
      <point x="191" y="445" type="line"/>
      <point x="218" y="540"/>
      <point x="288" y="584"/>
      <point x="365" y="584" type="curve" smooth="yes"/>
      <point x="468" y="584"/>
      <point x="542" y="503"/>
      <point x="542" y="350" type="curve" smooth="yes"/>
      <point x="542" y="197"/>
      <point x="468" y="116"/>
      <point x="365" y="116" type="curve" smooth="yes"/>
      <point x="289" y="116"/>
      <point x="220" y="164"/>
      <point x="190" y="258" type="curve"/>
      <point x="50" y="214" type="line"/>
      <point x="83" y="81"/>
      <point x="206" y="-12"/>
      <point x="365" y="-12" type="curve" smooth="yes"/>
      <point x="559" y="-12"/>
      <point x="697" y="132"/>
      <point x="697" y="350" type="curve" smooth="yes"/>
      <point x="697" y="568"/>
      <point x="559" y="712"/>
      <point x="365" y="712" type="curve" smooth="yes"/>
      <point x="206" y="712"/>
      <point x="85" y="619"/>
    </contour>
  </outline>
</glyph>
<glyph name="Dhook" format="2">
  <advance width="760"/>
  <unicode hex="018A"/>
  <outline>
    <contour>
      <point x="299" y="123" type="line"/>
      <point x="299" y="0" type="line"/>
      <point x="414" y="0" type="line" smooth="yes"/>
      <point x="630" y="0"/>
      <point x="742" y="149"/>
      <point x="742" y="350" type="curve" smooth="yes"/>
      <point x="742" y="551"/>
      <point x="630" y="700"/>
      <point x="414" y="700" type="curve" smooth="yes"/>
      <point x="299" y="700" type="line"/>
      <point x="299" y="577" type="line"/>
      <point x="407" y="577" type="line" smooth="yes"/>
      <point x="511" y="577"/>
      <point x="587" y="506"/>
      <point x="587" y="350" type="curve" smooth="yes"/>
      <point x="587" y="194"/>
      <point x="511" y="123"/>
      <point x="407" y="123" type="curve" smooth="yes"/>
    </contour>
    <contour>
      <point x="236" y="0" type="line"/>
      <point x="386" y="0" type="line"/>
      <point x="386" y="700" type="line"/>
      <point x="236" y="700" type="line"/>
    </contour>
    <contour>
      <point x="323" y="700" type="line"/>
      <point x="230" y="700" type="line" smooth="yes"/>
      <point x="70" y="700"/>
      <point x="7" y="588"/>
      <point x="7" y="488" type="curve" smooth="yes"/>
      <point x="7" y="437"/>
      <point x="24" y="401"/>
      <point x="43" y="371" type="curve"/>
      <point x="182" y="376" type="line"/>
      <point x="160" y="411"/>
      <point x="147" y="445"/>
      <point x="147" y="483" type="curve" smooth="yes"/>
      <point x="147" y="532"/>
      <point x="176" y="576"/>
      <point x="234" y="576" type="curve" smooth="yes"/>
      <point x="323" y="576" type="line"/>
    </contour>
  </outline>
</glyph>
<glyph name="Ereversed" format="2">
  <advance width="600"/>
  <unicode hex="018E"/>
  <outline>
    <contour>
      <point x="518" y="700" type="line"/>
      <point x="368" y="700" type="line"/>
      <point x="368" y="0" type="line"/>
      <point x="518" y="0" type="line"/>
    </contour>
    <contour>
      <point x="457" y="576" type="line"/>
      <point x="457" y="700" type="line"/>
      <point x="67" y="700" type="line"/>
      <point x="67" y="576" type="line"/>
    </contour>
    <contour>
      <point x="447" y="294" type="line"/>
      <point x="447" y="417" type="line"/>
      <point x="178" y="417" type="line"/>
      <point x="178" y="294" type="line"/>
    </contour>
    <contour>
      <point x="453" y="0" type="line"/>
      <point x="453" y="124" type="line"/>
      <point x="53" y="124" type="line"/>
      <point x="53" y="0" type="line"/>
    </contour>
  </outline>
</glyph>
<glyph name="Schwa" format="2">
  <advance width="760"/>
  <unicode hex="018F"/>
  <outline>
    <contour>
      <point x="378" y="712" type="curve" smooth="yes"/>
      <point x="224" y="712"/>
      <point x="109" y="630"/>
      <point x="63" y="510" type="curve"/>
      <point x="203" y="464" type="line"/>
      <point x="233" y="535"/>
      <point x="290" y="585"/>
      <point x="377" y="585" type="curve" smooth="yes"/>
      <point x="491" y="585"/>
      <point x="564" y="501"/>
      <point x="564" y="350" type="curve" smooth="yes"/>
      <point x="564" y="203"/>
      <point x="490" y="116"/>
      <point x="379" y="116" type="curve" smooth="yes"/>
      <point x="269" y="116"/>
      <point x="203" y="202"/>
      <point x="202" y="335" type="curve"/>
      <point x="165" y="280" type="line"/>
      <point x="626" y="280" type="line"/>
      <point x="626" y="403" type="line"/>
      <point x="49" y="403" type="line"/>
      <point x="49" y="355" type="line" smooth="yes"/>
      <point x="49" y="134"/>
      <point x="184" y="-12"/>
      <point x="378" y="-12" type="curve" smooth="yes"/>
      <point x="576" y="-12"/>
      <point x="717" y="134"/>
      <point x="717" y="350" type="curve" smooth="yes"/>
      <point x="717" y="566"/>
      <point x="578" y="712"/>
    </contour>
  </outline>
</glyph>
<glyph name="Eopen" format="2">
  <advance width="680"/>
  <unicode hex="0190"/>
  <outline>
    <contour>
      <point x="637" y="218" type="curve"/>
      <point x="488" y="212" type="line"/>
      <point x="490" y="146"/>
      <point x="448" y="107"/>
      <point x="345" y="107" type="curve" smooth="yes"/>
      <point x="249" y="107"/>
      <point x="202" y="151"/>
      <point x="202" y="207" type="curve" smooth="yes"/>
      <point x="202" y="266"/>
      <point x="256" y="303"/>
      <point x="355" y="303" type="curve" smooth="yes"/>
      <point x="425" y="303" type="line"/>
      <point x="425" y="421" type="line"/>
      <point x="356" y="421" type="line" smooth="yes"/>
      <point x="274" y="421"/>
      <point x="221" y="448"/>
      <point x="221" y="504" type="curve" smooth="yes"/>
      <point x="221" y="557"/>
      <point x="269" y="594"/>
      <point x="349" y="594" type="curve" smooth="yes"/>
      <point x="443" y="594"/>
      <point x="480" y="550"/>
      <point x="481" y="492" type="curve"/>
      <point x="630" y="486" type="line"/>
      <point x="632" y="631"/>
      <point x="515" y="712"/>
      <point x="347" y="712" type="curve" smooth="yes"/>
      <point x="178" y="712"/>
      <point x="66" y="627"/>
      <point x="66" y="510" type="curve" smooth="yes"/>
      <point x="66" y="422"/>
      <point x="133" y="378"/>
      <point x="202" y="362" type="curve"/>
      <point x="202" y="368" type="line"/>
      <point x="107" y="351"/>
      <point x="49" y="293"/>
      <point x="49" y="203" type="curve" smooth="yes"/>
      <point x="49" y="73"/>
      <point x="160" y="-12"/>
      <point x="347" y="-12" type="curve" smooth="yes"/>
      <point x="519" y="-12"/>
      <point x="642" y="60"/>
    </contour>
  </outline>
</glyph>
<glyph name="khook" format="2">
  <advance width="600"/>
  <unicode hex="0199"/>
  <outline>
    <contour>
      <point x="164" y="256" type="line"/>
      <point x="160" y="100" type="line"/>
      <point x="319" y="255" type="line"/>
      <point x="357" y="277" type="line"/>
      <point x="588" y="500" type="line"/>
      <point x="414" y="500" type="line"/>
    </contour>
    <contour>
      <point x="240" y="260" type="line"/>
      <point x="433" y="0" type="line"/>
      <point x="596" y="0" type="line"/>
      <point x="340" y="345" type="line"/>
    </contour>
    <contour>
      <point x="221" y="537" type="line" smooth="yes"/>
      <point x="221" y="577"/>
      <point x="245" y="596"/>
      <point x="274" y="596" type="curve" smooth="yes"/>
      <point x="292" y="596"/>
      <point x="307" y="592"/>
      <point x="327" y="584" type="curve"/>
      <point x="330" y="689" type="line"/>
      <point x="306" y="699"/>
      <point x="268" y="707"/>
      <point x="231" y="707" type="curve" smooth="yes"/>
      <point x="147" y="707"/>
      <point x="81" y="654"/>
      <point x="81" y="544" type="curve" smooth="yes"/>
      <point x="81" y="0" type="line"/>
      <point x="221" y="0" type="line"/>
    </contour>
  </outline>
</glyph>
<glyph name="Uhorn" format="2">
  <advance width="760"/>
  <unicode hex="01AF"/>
  <outline>
    <contour>
      <point x="76" y="269" type="line" smooth="yes"/>
      <point x="76" y="100"/>
      <point x="187" y="-12"/>
      <point x="381" y="-12" type="curve" smooth="yes"/>
      <point x="575" y="-12"/>
      <point x="684" y="100"/>
      <point x="684" y="269" type="curve" smooth="yes"/>
      <point x="684" y="700" type="line"/>
      <point x="539" y="700" type="line"/>
      <point x="539" y="277" type="line" smooth="yes"/>
      <point x="539" y="181"/>
      <point x="480" y="117"/>
      <point x="381" y="117" type="curve" smooth="yes"/>
      <point x="282" y="117"/>
      <point x="222" y="181"/>
      <point x="222" y="277" type="curve" smooth="yes"/>
      <point x="222" y="700" type="line"/>
      <point x="76" y="700" type="line"/>
    </contour>
    <component base="horncmb.uc" xOffset="406"/>
  </outline>
</glyph>
<glyph name="icaron" format="2">
  <advance width="350"/>
  <unicode hex="01D0"/>
  <outline>
    <contour>
      <point x="108" y="564" type="line"/>
      <point x="242" y="564" type="line"/>
      <point x="352" y="700" type="line"/>
      <point x="238" y="700" type="line"/>
      <point x="122" y="602" type="line"/>
      <point x="228" y="602" type="line"/>
      <point x="112" y="700" type="line"/>
      <point x="-2" y="700" type="line"/>
    </contour>
    <component base="dotlessi"/>
  </outline>
</glyph>
<glyph name="oopen" format="2">
  <advance width="600"/>
  <unicode hex="0254"/>
  <outline>
    <contour>
      <point x="41" y="147" type="line"/>
      <point x="72" y="52"/>
      <point x="163" y="-12"/>
      <point x="282" y="-12" type="curve" smooth="yes"/>
      <point x="430" y="-12"/>
      <point x="536" y="91"/>
      <point x="536" y="250" type="curve" smooth="yes"/>
      <point x="536" y="409"/>
      <point x="432" y="512"/>
      <point x="286" y="512" type="curve" smooth="yes"/>
      <point x="167" y="512"/>
      <point x="73" y="452"/>
      <point x="41" y="351" type="curve"/>
      <point x="177" y="316" type="line"/>
      <point x="192" y="371"/>
      <point x="238" y="398"/>
      <point x="285" y="398" type="curve" smooth="yes"/>
      <point x="355" y="398"/>
      <point x="395" y="351"/>
      <point x="395" y="250" type="curve" smooth="yes"/>
      <point x="395" y="149"/>
      <point x="356" y="102"/>
      <point x="286" y="102" type="curve" smooth="yes"/>
      <point x="239" y="102"/>
      <point x="190" y="128"/>
      <point x="177" y="182" type="curve"/>
    </contour>
  </outline>
</glyph>
<glyph name="dhook" format="2">
  <advance width="600"/>
  <unicode hex="0257"/>
  <outline>
    <contour>
      <point x="287" y="104" type="curve" smooth="yes"/>
      <point x="218" y="104"/>
      <point x="172" y="154"/>
      <point x="172" y="250" type="curve" smooth="yes"/>
      <point x="172" y="346"/>
      <point x="218" y="396"/>
      <point x="287" y="396" type="curve" smooth="yes"/>
      <point x="356" y="396"/>
      <point x="402" y="346"/>
      <point x="402" y="250" type="curve" smooth="yes"/>
      <point x="402" y="154"/>
      <point x="356" y="104"/>
    </contour>
    <contour>
      <point x="536" y="537" type="line" smooth="yes"/>
      <point x="536" y="577"/>
      <point x="550" y="596"/>
      <point x="582" y="596" type="curve" smooth="yes"/>
      <point x="593" y="596"/>
      <point x="610" y="593"/>
      <point x="619" y="590" type="curve"/>
      <point x="622" y="695" type="line"/>
      <point x="608" y="701"/>
      <point x="575" y="707"/>
      <point x="545" y="707" type="curve" smooth="yes"/>
      <point x="457" y="707"/>
      <point x="396" y="654"/>
      <point x="396" y="544" type="curve" smooth="yes"/>
      <point x="396" y="379" type="line"/>
      <point x="429" y="379" type="line"/>
      <point x="398" y="460"/>
      <point x="330" y="512"/>
      <point x="242" y="512" type="curve" smooth="yes"/>
      <point x="131" y="512"/>
      <point x="31" y="421"/>
      <point x="31" y="249" type="curve" smooth="yes"/>
      <point x="31" y="76"/>
      <point x="131" y="-12"/>
      <point x="242" y="-12" type="curve" smooth="yes"/>
      <point x="330" y="-12"/>
      <point x="398" y="38"/>
      <point x="429" y="119" type="curve"/>
      <point x="396" y="119" type="line"/>
      <point x="396" y="0" type="line"/>
      <point x="536" y="0" type="line"/>
    </contour>
  </outline>
</glyph>
<glyph name="vturned" format="2">
  <advance width="600"/>
  <unicode hex="028C"/>
  <outline>
    <contour>
      <point x="377" y="500" type="line"/>
      <point x="222" y="500" type="line"/>
      <point x="21" y="0" type="line"/>
      <point x="169" y="0" type="line"/>
      <point x="343" y="461" type="line"/>
      <point x="255" y="461" type="line"/>
      <point x="431" y="0" type="line"/>
      <point x="579" y="0" type="line"/>
    </contour>
  </outline>
</glyph>
<glyph name="ringhalfleftmod" format="2">
  <advance width="350"/>
  <unicode hex="02BF"/>
  <outline>
    <contour>
      <point x="257" y="469" type="line" smooth="yes"/>
      <point x="215" y="469"/>
      <point x="186" y="495"/>
      <point x="186" y="535" type="curve" smooth="yes"/>
      <point x="186" y="575"/>
      <point x="215" y="601"/>
      <point x="257" y="601" type="curve" smooth="yes"/>
      <point x="275" y="601" type="line"/>
      <point x="275" y="700" type="line"/>
      <point x="257" y="700" type="line" smooth="yes"/>
      <point x="138" y="700"/>
      <point x="75" y="630"/>
      <point x="75" y="535" type="curve" smooth="yes"/>
      <point x="75" y="440"/>
      <point x="138" y="370"/>
      <point x="257" y="370" type="curve" smooth="yes"/>
      <point x="275" y="370" type="line"/>
      <point x="275" y="469" type="line"/>
    </contour>
  </outline>
</glyph>
<glyph name="tildecmb" format="2">
  <advance width="600"/>
  <unicode hex="0303"/>
  <outline>
    <contour>
      <point x="237" y="694" type="curve" smooth="yes"/>
      <point x="180" y="694"/>
      <point x="143" y="646"/>
      <point x="140" y="564" type="curve"/>
      <point x="230" y="564" type="line"/>
      <point x="232" y="584"/>
      <point x="237" y="598"/>
      <point x="252" y="598" type="curve" smooth="yes"/>
      <point x="274" y="598"/>
      <point x="323" y="569"/>
      <point x="363" y="569" type="curve" smooth="yes"/>
      <point x="420" y="569"/>
      <point x="457" y="617"/>
      <point x="460" y="699" type="curve"/>
      <point x="369" y="699" type="line"/>
      <point x="367" y="679"/>
      <point x="363" y="665"/>
      <point x="348" y="665" type="curve" smooth="yes"/>
      <point x="326" y="665"/>
      <point x="277" y="694"/>
    </contour>
  </outline>
</glyph>
<glyph name="caroncmb" format="2">
  <advance width="600"/>
  <unicode hex="030C"/>
  <outline>
    <contour>
      <point x="233" y="564" type="line"/>
      <point x="367" y="564" type="line"/>
      <point x="477" y="700" type="line"/>
      <point x="363" y="700" type="line"/>
      <point x="247" y="602" type="line"/>
      <point x="353" y="602" type="line"/>
      <point x="237" y="700" type="line"/>
      <point x="123" y="700" type="line"/>
    </contour>
  </outline>
</glyph>
<glyph name="lmacrondot" format="2">
  <advance width="350"/>
  <unicode hex="1E39"/>
  <outline>
    <contour>
      <point x="18" y="760" type="line"/>
      <point x="332" y="760" type="line"/>
      <point x="332" y="860" type="line"/>
      <point x="18" y="860" type="line"/>
    </contour>
    <component base="l"/>
    <component base="dotbelowcmb" xOffset="-125"/>
  </outline>
</glyph>
<glyph name="rlinebelow" format="2">
  <advance width="350"/>
  <unicode hex="1E5F"/>
  <outline>
    <contour>
      <point x="-13" y="-77" type="line"/>
      <point x="233" y="-77" type="line"/>
      <point x="233" y="-178" type="line"/>
      <point x="-13" y="-178" type="line"/>
    </contour>
    <component base="r"/>
  </outline>
</glyph>
<glyph name="Germandbls" format="2">
  <advance width="760"/>
  <unicode hex="1E9E"/>
  <outline>
    <contour>
      <point x="67" y="700" type="line"/>
      <point x="67" y="0" type="line"/>
      <point x="218" y="0" type="line"/>
      <point x="218" y="700" type="line"/>
    </contour>
    <contour>
      <point x="681" y="577" type="line"/>
      <point x="681" y="700" type="line"/>
      <point x="132" y="700" type="line"/>
      <point x="132" y="577" type="line"/>
      <point x="577" y="577" type="line"/>
      <point x="541" y="608" type="line"/>
      <point x="311" y="418" type="line"/>
      <point x="311" y="314" type="line"/>
      <point x="433" y="314" type="line" smooth="yes"/>
      <point x="524" y="314"/>
      <point x="580" y="286"/>
      <point x="580" y="213" type="curve" smooth="yes"/>
      <point x="580" y="140"/>
      <point x="523" y="108"/>
      <point x="429" y="108" type="curve" smooth="yes"/>
      <point x="393" y="108"/>
      <point x="344" y="114"/>
      <point x="298" y="127" type="curve"/>
      <point x="298" y="7" type="line"/>
      <point x="347" y="-6"/>
      <point x="392" y="-12"/>
      <point x="444" y="-12" type="curve" smooth="yes"/>
      <point x="647" y="-12"/>
      <point x="732" y="76"/>
      <point x="732" y="212" type="curve" smooth="yes"/>
      <point x="732" y="348"/>
      <point x="650" y="429"/>
      <point x="449" y="429" type="curve" smooth="yes"/>
      <point x="368" y="429" type="line"/>
      <point x="467" y="404" type="line"/>
    </contour>
  </outline>
</glyph>
<glyph name="endash" format="2">
  <advance width="600"/>
  <unicode hex="2013"/>
  <outline>
    <contour>
      <point x="62" y="238" type="line"/>
      <point x="538" y="238" type="line"/>
      <point x="538" y="354" type="line"/>
      <point x="62" y="354" type="line"/>
    </contour>
  </outline>
</glyph>
<glyph name="quotedblright" format="2">
  <advance width="600"/>
  <unicode hex="201D"/>
  <outline>
    <contour>
      <point x="137" y="700" type="line"/>
      <point x="137" y="542" type="line"/>
      <point x="214" y="542" type="line"/>
      <point x="214" y="529" type="line" smooth="yes"/>
      <point x="214" y="478"/>
      <point x="184" y="443"/>
      <point x="115" y="443" type="curve"/>
      <point x="115" y="382" type="line"/>
      <point x="246" y="382"/>
      <point x="285" y="476"/>
      <point x="285" y="530" type="curve" smooth="yes"/>
      <point x="285" y="700" type="line"/>
    </contour>
    <contour>
      <point x="334" y="700" type="line"/>
      <point x="334" y="542" type="line"/>
      <point x="411" y="542" type="line"/>
      <point x="411" y="529" type="line" smooth="yes"/>
      <point x="411" y="478"/>
      <point x="381" y="443"/>
      <point x="312" y="443" type="curve"/>
      <point x="312" y="382" type="line"/>
      <point x="443" y="382"/>
      <point x="482" y="476"/>
      <point x="482" y="530" type="curve" smooth="yes"/>
      <point x="482" y="700" type="line"/>
    </contour>
  </outline>
</glyph>
<glyph name="bullet" format="2">
  <advance width="600"/>
  <unicode hex="2022"/>
  <outline>
    <contour>
      <point x="300" y="502" type="curve" smooth="yes"/>
      <point x="194" y="502"/>
      <point x="108" y="415"/>
      <point x="108" y="309" type="curve" smooth="yes"/>
      <point x="108" y="203"/>
      <point x="194" y="116"/>
      <point x="300" y="116" type="curve" smooth="yes"/>
      <point x="406" y="116"/>
      <point x="492" y="203"/>
      <point x="492" y="309" type="curve" smooth="yes"/>
      <point x="492" y="415"/>
      <point x="406" y="502"/>
    </contour>
  </outline>
</glyph>
<glyph name="ellipsis" format="2">
  <advance width="760"/>
  <unicode hex="2026"/>
  <outline>
    <contour>
      <point x="55" y="148" type="line"/>
      <point x="55" y="0" type="line"/>
      <point x="199" y="0" type="line"/>
      <point x="199" y="148" type="line"/>
    </contour>
    <contour>
      <point x="308" y="148" type="line"/>
      <point x="308" y="0" type="line"/>
      <point x="452" y="0" type="line"/>
      <point x="452" y="148" type="line"/>
    </contour>
    <contour>
      <point x="561" y="148" type="line"/>
      <point x="561" y="0" type="line"/>
      <point x="705" y="0" type="line"/>
      <point x="705" y="148" type="line"/>
    </contour>
  </outline>
</glyph>
<glyph name="perthousand" format="2">
  <advance width="760"/>
  <unicode hex="2030"/>
  <outline>
    <contour>
      <point x="43" y="178" type="line"/>
      <point x="687" y="544" type="line"/>
      <point x="687" y="632" type="line"/>
      <point x="43" y="266" type="line"/>
    </contour>
    <contour>
      <point x="31" y="549" type="curve" smooth="yes"/>
      <point x="31" y="446"/>
      <point x="91" y="391"/>
      <point x="164" y="391" type="curve" smooth="yes"/>
      <point x="235" y="391"/>
      <point x="295" y="446"/>
      <point x="295" y="549" type="curve" smooth="yes"/>
      <point x="295" y="650"/>
      <point x="235" y="705"/>
      <point x="164" y="705" type="curve" smooth="yes"/>
      <point x="91" y="705"/>
      <point x="31" y="650"/>
    </contour>
    <contour>
      <point x="121" y="549" type="curve" smooth="yes"/>
      <point x="121" y="600"/>
      <point x="140" y="623"/>
      <point x="164" y="623" type="curve" smooth="yes"/>
      <point x="186" y="623"/>
      <point x="205" y="600"/>
      <point x="205" y="549" type="curve" smooth="yes"/>
      <point x="205" y="496"/>
      <point x="186" y="473"/>
      <point x="164" y="473" type="curve" smooth="yes"/>
      <point x="140" y="473"/>
      <point x="121" y="496"/>
    </contour>
    <contour>
      <point x="486" y="141" type="curve" smooth="yes"/>
      <point x="486" y="46"/>
      <point x="541" y="-5"/>
      <point x="608" y="-5" type="curve" smooth="yes"/>
      <point x="674" y="-5"/>
      <point x="729" y="46"/>
      <point x="729" y="141" type="curve" smooth="yes"/>
      <point x="729" y="234"/>
      <point x="674" y="284"/>
      <point x="608" y="284" type="curve" smooth="yes"/>
      <point x="541" y="284"/>
      <point x="486" y="234"/>
    </contour>
    <contour>
      <point x="569" y="141" type="curve" smooth="yes"/>
      <point x="569" y="188"/>
      <point x="586" y="209"/>
      <point x="608" y="209" type="curve" smooth="yes"/>
      <point x="629" y="209"/>
      <point x="646" y="188"/>
      <point x="646" y="141" type="curve" smooth="yes"/>
      <point x="646" y="92"/>
      <point x="629" y="71"/>
      <point x="608" y="71" type="curve" smooth="yes"/>
      <point x="586" y="71"/>
      <point x="569" y="92"/>
    </contour>
    <contour>
      <point x="218" y="141" type="curve" smooth="yes"/>
      <point x="218" y="46"/>
      <point x="273" y="-5"/>
      <point x="340" y="-5" type="curve" smooth="yes"/>
      <point x="406" y="-5"/>
      <point x="461" y="46"/>
      <point x="461" y="141" type="curve" smooth="yes"/>
      <point x="461" y="234"/>
      <point x="406" y="284"/>
      <point x="340" y="284" type="curve" smooth="yes"/>
      <point x="273" y="284"/>
      <point x="218" y="234"/>
    </contour>
    <contour>
      <point x="301" y="141" type="curve" smooth="yes"/>
      <point x="301" y="188"/>
      <point x="318" y="209"/>
      <point x="340" y="209" type="curve" smooth="yes"/>
      <point x="360" y="209"/>
      <point x="378" y="188"/>
      <point x="378" y="141" type="curve" smooth="yes"/>
      <point x="378" y="92"/>
      <point x="360" y="71"/>
      <point x="340" y="71" type="curve" smooth="yes"/>
      <point x="318" y="71"/>
      <point x="301" y="92"/>
    </contour>
  </outline>
</glyph>
<glyph name="second" format="2">
  <advance width="350"/>
  <unicode hex="2033"/>
  <outline>
    <contour>
      <point x="57" y="700" type="line"/>
      <point x="1" y="363" type="line"/>
      <point x="79" y="363" type="line"/>
      <point x="187" y="700" type="line"/>
    </contour>
    <contour>
      <point x="220" y="700" type="line"/>
      <point x="164" y="363" type="line"/>
      <point x="242" y="363" type="line"/>
      <point x="350" y="700" type="line"/>
    </contour>
  </outline>
</glyph>
<glyph name="guilsinglleft" format="2">
  <advance width="350"/>
  <unicode hex="2039"/>
  <outline>
    <contour>
      <point x="314" y="450" type="line"/>
      <point x="176" y="450" type="line"/>
      <point x="36" y="276" type="line"/>
      <point x="36" y="234" type="line"/>
      <point x="176" y="60" type="line"/>
      <point x="314" y="60" type="line"/>
      <point x="137" y="280" type="line"/>
      <point x="137" y="230" type="line"/>
    </contour>
  </outline>
</glyph>
<glyph name="cedi" format="2">
  <advance width="600"/>
  <unicode hex="20B5"/>
  <outline>
    <contour>
      <point x="557" y="490" type="line"/>
      <point x="534" y="620"/>
      <point x="448" y="712"/>
      <point x="318" y="712" type="curve" smooth="yes"/>
      <point x="140" y="712"/>
      <point x="45" y="569"/>
      <point x="45" y="350" type="curve" smooth="yes"/>
      <point x="45" y="131"/>
      <point x="140" y="-12"/>
      <point x="318" y="-12" type="curve" smooth="yes"/>
      <point x="448" y="-12"/>
      <point x="537" y="81"/>
      <point x="558" y="212" type="curve"/>
      <point x="430" y="237" type="line"/>
      <point x="413" y="146"/>
      <point x="376" y="108"/>
      <point x="318" y="108" type="curve" smooth="yes"/>
      <point x="237" y="108"/>
      <point x="185" y="176"/>
      <point x="185" y="350" type="curve" smooth="yes"/>
      <point x="185" y="524"/>
      <point x="237" y="592"/>
      <point x="318" y="592" type="curve" smooth="yes"/>
      <point x="376" y="592"/>
      <point x="412" y="556"/>
      <point x="429" y="465" type="curve"/>
    </contour>
    <contour>
      <point x="263" y="-112" type="line"/>
      <point x="357" y="-112" type="line"/>
      <point x="357" y="797" type="line"/>
      <point x="263" y="797" type="line"/>
    </contour>
  </outline>
</glyph>
<glyph name="trademark" format="2">
  <advance width="760"/>
  <unicode hex="2122"/>
  <outline>
    <contour>
      <point x="127" y="677" type="line"/>
      <point x="228" y="677" type="line"/>
      <point x="228" y="347" type="line"/>
      <point x="127" y="347" type="line"/>
    </contour>
    <contour>
      <point x="33" y="610" type="line"/>
      <point x="33" y="700" type="line"/>
      <point x="323" y="700" type="line"/>
      <point x="323" y="610" type="line"/>
    </contour>
    <contour>
      <point x="424" y="676" type="line"/>
      <point x="512" y="347" type="line"/>
      <point x="562" y="347" type="line"/>
      <point x="652" y="675" type="line"/>
      <point x="624" y="675" type="line"/>
      <point x="624" y="347" type="line"/>
      <point x="715" y="347" type="line"/>
      <point x="715" y="700" type="line"/>
      <point x="584" y="700" type="line"/>
      <point x="520" y="472" type="line"/>
      <point x="558" y="472" type="line"/>
      <point x="495" y="700" type="line"/>
      <point x="361" y="700" type="line"/>
      <point x="361" y="347" type="line"/>
      <point x="452" y="347" type="line"/>
      <point x="452" y="676" type="line"/>
    </contour>
  </outline>
</glyph>
<glyph name="onetenth" format="2">
  <advance width="760"/>
  <unicode hex="2152"/>
  <outline>
    <contour>
      <point x="390" y="274" type="line"/>
      <point x="390" y="226"/>
      <point x="377" y="211"/>
      <point x="325" y="211" type="curve"/>
      <point x="325" y="153" type="line"/>
      <point x="428" y="153" type="line"/>
      <point x="384" y="205" type="line"/>
      <point x="384" y="0" type="line"/>
      <point x="461" y="0" type="line"/>
      <point x="461" y="274" type="line"/>
    </contour>
    <contour>
      <point x="616" y="277" type="curve" smooth="yes"/>
      <point x="545" y="277"/>
      <point x="501" y="223"/>
      <point x="501" y="135" type="curve" smooth="yes"/>
      <point x="501" y="49"/>
      <point x="545" y="-5"/>
      <point x="616" y="-5" type="curve" smooth="yes"/>
      <point x="686" y="-5"/>
      <point x="732" y="49"/>
      <point x="732" y="135" type="curve" smooth="yes"/>
      <point x="732" y="223"/>
      <point x="686" y="277"/>
    </contour>
    <contour>
      <point x="617" y="59" type="curve" smooth="yes"/>
      <point x="593" y="59"/>
      <point x="579" y="84"/>
      <point x="579" y="135" type="curve" smooth="yes"/>
      <point x="579" y="188"/>
      <point x="593" y="213"/>
      <point x="617" y="213" type="curve" smooth="yes"/>
      <point x="640" y="213"/>
      <point x="654" y="188"/>
      <point x="654" y="135" type="curve" smooth="yes"/>
      <point x="654" y="84"/>
      <point x="640" y="59"/>
    </contour>
    <contour>
      <point x="102" y="700" type="line"/>
      <point x="102" y="646"/>
      <point x="87" y="629"/>
      <point x="27" y="629" type="curve"/>
      <point x="27" y="561" type="line"/>
      <point x="145" y="561" type="line"/>
      <point x="95" y="621" type="line"/>
      <point x="95" y="386" type="line"/>
      <point x="183" y="386" type="line"/>
      <point x="183" y="700" type="line"/>
    </contour>
    <contour>
      <point x="65" y="0" type="line"/>
      <point x="154" y="0" type="line"/>
      <point x="495" y="700" type="line"/>
      <point x="406" y="700" type="line"/>
    </contour>
  </outline>
</glyph>
<glyph name="circlewhite" format="2">
  <advance width="760"/>
  <unicode hex="25CB"/>
  <outline>
    <contour>
      <point x="380" y="-12" type="curve" smooth="yes"/>
      <point x="584" y="-12"/>
      <point x="739" y="149"/>
      <point x="739" y="350" type="curve" smooth="yes"/>
      <point x="739" y="551"/>
      <point x="584" y="712"/>
      <point x="380" y="712" type="curve" smooth="yes"/>
      <point x="176" y="712"/>
      <point x="21" y="551"/>
      <point x="21" y="350" type="curve" smooth="yes"/>
      <point x="21" y="149"/>
      <point x="176" y="-12"/>
    </contour>
    <contour>
      <point x="380" y="73" type="curve" smooth="yes"/>
      <point x="223" y="73"/>
      <point x="112" y="190"/>
      <point x="112" y="350" type="curve" smooth="yes"/>
      <point x="112" y="510"/>
      <point x="223" y="627"/>
      <point x="380" y="627" type="curve" smooth="yes"/>
      <point x="537" y="627"/>
      <point x="648" y="510"/>
      <point x="648" y="350" type="curve" smooth="yes"/>
      <point x="648" y="190"/>
      <point x="537" y="73"/>
    </contour>
  </outline>
</glyph>
<glyph name="circleblack" format="2">
  <advance width="760"/>
  <unicode hex="25CF"/>
  <outline>
    <contour>
      <point x="21" y="350" type="curve" smooth="yes"/>
      <point x="21" y="149"/>
      <point x="176" y="-12"/>
      <point x="380" y="-12" type="curve" smooth="yes"/>
      <point x="584" y="-12"/>
      <point x="739" y="149"/>
      <point x="739" y="350" type="curve" smooth="yes"/>
      <point x="739" y="551"/>
      <point x="584" y="712"/>
      <point x="380" y="712" type="curve" smooth="yes"/>
      <point x="176" y="712"/>
      <point x="21" y="551"/>
    </contour>
  </outline>
</glyph>
<glyph name="onesanscircled" format="2">
  <advance width="760"/>
  <unicode hex="2780"/>
  <outline>
    <contour>
      <point x="345" y="546" type="line"/>
      <point x="345" y="478"/>
      <point x="326" y="457"/>
      <point x="240" y="457" type="curve"/>
      <point x="240" y="373" type="line"/>
      <point x="336" y="373" type="line"/>
      <point x="336" y="154" type="line"/>
      <point x="446" y="154" type="line"/>
      <point x="446" y="546" type="line"/>
    </contour>
    <component base="circlewhite" identifier="F72FB9CB"/>
  </outline>
</glyph>
<glyph name="twosanscircled" format="2">
  <advance width="760"/>
  <unicode hex="2781"/>
  <outline>
    <contour>
      <point x="534" y="154" type="line"/>
      <point x="534" y="245" type="line"/>
      <point x="389" y="245" type="line"/>
      <point x="476" y="307"/>
      <point x="531" y="356"/>
      <point x="531" y="424" type="curve" smooth="yes"/>
      <point x="531" y="483"/>
      <point x="494" y="552"/>
      <point x="381" y="552" type="curve" smooth="yes"/>
      <point x="274" y="552"/>
      <point x="228" y="489"/>
      <point x="228" y="429" type="curve" smooth="yes"/>
      <point x="228" y="411"/>
      <point x="232" y="394"/>
      <point x="243" y="375" type="curve"/>
      <point x="346" y="388" type="line"/>
      <point x="339" y="401"/>
      <point x="336" y="413"/>
      <point x="336" y="423" type="curve" smooth="yes"/>
      <point x="336" y="447"/>
      <point x="353" y="465"/>
      <point x="379" y="465" type="curve" smooth="yes"/>
      <point x="404" y="465"/>
      <point x="420" y="448"/>
      <point x="420" y="423" type="curve" smooth="yes"/>
      <point x="420" y="380"/>
      <point x="372" y="349"/>
      <point x="231" y="242" type="curve"/>
      <point x="231" y="154" type="line"/>
    </contour>
    <component base="circlewhite" identifier="F22F5A44"/>
  </outline>
</glyph>
<glyph name="sixsanscircled" format="2">
  <advance width="760"/>
  <unicode hex="2785"/>
  <outline>
    <contour>
      <point x="376" y="148" type="curve" smooth="yes"/>
      <point x="481" y="148"/>
      <point x="531" y="213"/>
      <point x="531" y="285" type="curve" smooth="yes"/>
      <point x="531" y="365"/>
      <point x="484" y="415"/>
      <point x="410" y="415" type="curve" smooth="yes"/>
      <point x="376" y="415"/>
      <point x="348" y="404"/>
      <point x="327" y="385" type="curve"/>
      <point x="334" y="440"/>
      <point x="360" y="464"/>
      <point x="387" y="464" type="curve" smooth="yes"/>
      <point x="404" y="464"/>
      <point x="415" y="455"/>
      <point x="416" y="436" type="curve"/>
      <point x="525" y="424" type="line"/>
      <point x="522" y="502"/>
      <point x="473" y="552"/>
      <point x="390" y="552" type="curve" smooth="yes"/>
      <point x="283" y="552"/>
      <point x="216" y="468"/>
      <point x="216" y="339" type="curve" smooth="yes"/>
      <point x="216" y="284"/>
      <point x="226" y="240"/>
      <point x="246" y="212" type="curve" smooth="yes"/>
      <point x="274" y="172"/>
      <point x="313" y="148"/>
    </contour>
    <contour>
      <point x="376" y="229" type="curve" smooth="yes"/>
      <point x="349" y="229"/>
      <point x="331" y="251"/>
      <point x="331" y="284" type="curve" smooth="yes"/>
      <point x="331" y="317"/>
      <point x="349" y="339"/>
      <point x="376" y="339" type="curve" smooth="yes"/>
      <point x="404" y="339"/>
      <point x="421" y="317"/>
      <point x="421" y="284" type="curve" smooth="yes"/>
      <point x="421" y="251"/>
      <point x="404" y="229"/>
    </contour>
    <component base="circlewhite" identifier="84E3566A"/>
  </outline>
</glyph>
<glyph name="sevensanscircled" format="2">
  <advance width="760"/>
  <unicode hex="2786"/>
  <outline>
    <contour>
      <point x="229" y="546" type="line"/>
      <point x="229" y="385" type="line"/>
      <point x="330" y="385" type="line"/>
      <point x="330" y="456" type="line"/>
      <point x="426" y="456" type="line"/>
      <point x="347" y="361"/>
      <point x="291" y="270"/>
      <point x="286" y="154" type="curve"/>
      <point x="404" y="154" type="line"/>
      <point x="414" y="285"/>
      <point x="469" y="375"/>
      <point x="555" y="480" type="curve"/>
      <point x="555" y="546" type="line"/>
    </contour>
    <component base="circlewhite" identifier="3FE1DAF3"/>
  </outline>
</glyph>
<glyph name="onesansnegativecircled" format="2">
  <advance width="760"/>
  <unicode hex="278A"/>
  <outline>
    <contour>
      <point x="345" y="546" type="curve"/>
      <point x="446" y="546" type="line"/>
      <point x="446" y="154" type="line"/>
      <point x="336" y="154" type="line"/>
      <point x="336" y="373" type="line"/>
      <point x="240" y="373" type="line"/>
      <point x="240" y="457" type="line"/>
      <point x="326" y="457"/>
      <point x="345" y="478"/>
    </contour>
    <component base="circleblack" identifier="CE8F8EFA"/>
  </outline>
</glyph>
<glyph name="foursansnegativecircled" format="2">
  <advance width="760"/>
  <unicode hex="278D"/>
  <outline>
    <contour>
      <point x="479" y="546" type="line"/>
      <point x="479" y="322" type="line"/>
      <point x="541" y="322" type="line"/>
      <point x="541" y="235" type="line"/>
      <point x="479" y="235" type="line"/>
      <point x="479" y="154" type="line"/>
      <point x="370" y="154" type="line"/>
      <point x="370" y="235" type="line"/>
      <point x="190" y="235" type="line"/>
      <point x="190" y="326" type="line"/>
      <point x="353" y="546" type="line"/>
    </contour>
    <contour>
      <point x="292" y="322" type="line"/>
      <point x="370" y="322" type="line"/>
      <point x="370" y="427" type="line"/>
    </contour>
    <component base="circleblack" identifier="57EF8C6A"/>
  </outline>
</glyph>
<glyph name="sevensansnegativecircled" format="2">
  <advance width="760"/>
  <unicode hex="2790"/>
  <outline>
    <contour>
      <point x="229" y="546" type="line"/>
      <point x="555" y="546" type="line"/>
      <point x="555" y="480" type="line"/>
      <point x="469" y="375"/>
      <point x="414" y="285"/>
      <point x="404" y="154" type="curve"/>
      <point x="286" y="154" type="line"/>
      <point x="291" y="270"/>
      <point x="347" y="361"/>
      <point x="426" y="456" type="curve"/>
      <point x="330" y="456" type="line"/>
      <point x="330" y="385" type="line"/>
      <point x="229" y="385" type="line"/>
    </contour>
    <component base="circleblack" identifier="76B536EE"/>
  </outline>
</glyph>
<glyph name="ninesansnegativecircled" format="2">
  <advance width="760"/>
  <unicode hex="2792"/>
  <outline>
    <contour>
      <point x="385" y="551" type="curve" smooth="yes"/>
      <point x="445" y="551"/>
      <point x="488" y="527"/>
      <point x="511" y="493" type="curve" smooth="yes"/>
      <point x="535" y="458"/>
      <point x="544" y="421"/>
      <point x="544" y="357" type="curve" smooth="yes"/>
      <point x="544" y="221"/>
      <point x="496" y="147"/>
      <point x="380" y="147" type="curve" smooth="yes"/>
      <point x="296" y="147"/>
      <point x="236" y="196"/>
      <point x="231" y="283" type="curve"/>
      <point x="349" y="268" type="line"/>
      <point x="350" y="243"/>
      <point x="363" y="227"/>
      <point x="384" y="227" type="curve" smooth="yes"/>
      <point x="417" y="227"/>
      <point x="431" y="268"/>
      <point x="433" y="317" type="curve"/>
      <point x="415" y="297"/>
      <point x="387" y="287"/>
      <point x="350" y="287" type="curve" smooth="yes"/>
      <point x="280" y="287"/>
      <point x="230" y="331"/>
      <point x="230" y="411" type="curve" smooth="yes"/>
      <point x="230" y="491"/>
      <point x="280" y="551"/>
    </contour>
    <contour>
      <point x="385" y="362" type="curve" smooth="yes"/>
      <point x="412" y="362"/>
      <point x="430" y="384"/>
      <point x="430" y="416" type="curve" smooth="yes"/>
      <point x="430" y="448"/>
      <point x="412" y="470"/>
      <point x="385" y="470" type="curve" smooth="yes"/>
      <point x="358" y="470"/>
      <point x="340" y="448"/>
      <point x="340" y="416" type="curve" smooth="yes"/>
      <point x="340" y="384"/>
      <point x="358" y="362"/>
    </contour>
    <component base="circleblack" identifier="E5B9FF6A"/>
  </outline>
</glyph>
<glyph name="tensansnegativecircled" format="2">
  <advance width="760"/>
  <unicode hex="2793"/>
  <outline>
    <contour>
      <point x="474" y="551" type="curve" smooth="yes"/>
      <point x="564" y="551"/>
      <point x="617" y="473"/>
      <point x="617" y="349" type="curve" smooth="yes"/>
      <point x="617" y="225"/>
      <point x="564" y="147"/>
      <point x="474" y="147" type="curve" smooth="yes"/>
      <point x="384" y="147"/>
      <point x="331" y="225"/>
      <point x="331" y="349" type="curve" smooth="yes"/>
      <point x="331" y="473"/>
      <point x="384" y="551"/>
    </contour>
    <contour>
      <point x="474" y="237" type="curve" smooth="yes"/>
      <point x="500" y="237"/>
      <point x="512" y="274"/>
      <point x="512" y="349" type="curve" smooth="yes"/>
      <point x="512" y="424"/>
      <point x="500" y="461"/>
      <point x="474" y="461" type="curve" smooth="yes"/>
      <point x="448" y="461"/>
      <point x="436" y="424"/>
      <point x="436" y="349" type="curve" smooth="yes"/>
      <point x="436" y="274"/>
      <point x="448" y="237"/>
    </contour>
    <contour>
      <point x="216" y="546" type="curve"/>
      <point x="313" y="546" type="line"/>
      <point x="313" y="154" type="line"/>
      <point x="207" y="154" type="line"/>
      <point x="207" y="395" type="line"/>
      <point x="148" y="395" type="line"/>
      <point x="148" y="479" type="line"/>
      <point x="203" y="479"/>
      <point x="216" y="499"/>
    </contour>
    <component base="circleblack" identifier="B20922E6"/>
  </outline>
</glyph>
<glyph name=".notdef" format="2">
  <advance width="600"/>
  <outline>
    <contour>
      <point x="65" y="0" type="line"/>
      <point x="145" y="0" type="line"/>
      <point x="145" y="700" type="line"/>
      <point x="65" y="700" type="line"/>
    </contour>
    <contour>
      <point x="82" y="80" type="line"/>
      <point x="82" y="0" type="line"/>
      <point x="521" y="0" type="line"/>
      <point x="521" y="80" type="line"/>
    </contour>
    <contour>
      <point x="455" y="700" type="line"/>
      <point x="455" y="0" type="line"/>
      <point x="535" y="0" type="line"/>
      <point x="535" y="700" type="line"/>
    </contour>
    <contour>
      <point x="82" y="620" type="line"/>
      <point x="521" y="620" type="line"/>
      <point x="521" y="700" type="line"/>
      <point x="82" y="700" type="line"/>
    </contour>
    <contour>
      <point x="374" y="474" type="line"/>
      <point x="176" y="276" type="line"/>
      <point x="226" y="226" type="line"/>
      <point x="424" y="424" type="line"/>
    </contour>
    <contour>
      <point x="424" y="276" type="line"/>
      <point x="226" y="474" type="line"/>
      <point x="176" y="424" type="line"/>
      <point x="374" y="226" type="line"/>
    </contour>
  </outline>
</glyph>
<glyph name="approxequal.tab" format="2">
  <advance width="600"/>
  <outline>
    <contour>
      <point x="179" y="308" type="curve" smooth="yes"/>
      <point x="101" y="308"/>
      <point x="51" y="253"/>
      <point x="44" y="143" type="curve"/>
      <point x="152" y="143" type="line"/>
      <point x="155" y="173"/>
      <point x="168" y="190"/>
      <point x="197" y="190" type="curve" smooth="yes"/>
      <point x="244" y="190"/>
      <point x="351" y="147"/>
      <point x="421" y="147" type="curve" smooth="yes"/>
      <point x="499" y="147"/>
      <point x="549" y="202"/>
      <point x="556" y="312" type="curve"/>
      <point x="448" y="312" type="line"/>
      <point x="445" y="283"/>
      <point x="432" y="265"/>
      <point x="403" y="265" type="curve" smooth="yes"/>
      <point x="356" y="265"/>
      <point x="249" y="308"/>
    </contour>
    <contour>
      <point x="179" y="532" type="curve" smooth="yes"/>
      <point x="101" y="532"/>
      <point x="51" y="477"/>
      <point x="44" y="367" type="curve"/>
      <point x="152" y="367" type="line"/>
      <point x="155" y="396"/>
      <point x="168" y="414"/>
      <point x="197" y="414" type="curve" smooth="yes"/>
      <point x="244" y="414"/>
      <point x="351" y="371"/>
      <point x="421" y="371" type="curve" smooth="yes"/>
      <point x="499" y="371"/>
      <point x="549" y="426"/>
      <point x="556" y="536" type="curve"/>
      <point x="448" y="536" type="line"/>
      <point x="445" y="506"/>
      <point x="432" y="489"/>
      <point x="403" y="489" type="curve" smooth="yes"/>
      <point x="356" y="489"/>
      <point x="249" y="532"/>
    </contour>
  </outline>
</glyph>
<glyph name="backslash.uc" format="2">
  <advance width="600"/>
  <outline>
    <contour>
      <point x="162" y="745" type="line"/>
      <point x="576" y="-83" type="line"/>
      <point x="426" y="-83" type="line"/>
      <point x="12" y="745" type="line"/>
    </contour>
  </outline>
</glyph>
<glyph name="braceleft.uc" format="2">
  <advance width="600"/>
  <outline>
    <contour>
      <point x="365" y="187" type="line"/>
      <point x="365" y="266"/>
      <point x="352" y="311"/>
      <point x="283" y="331" type="curve"/>
      <point x="352" y="351"/>
      <point x="365" y="396"/>
      <point x="365" y="475" type="curve" smooth="yes"/>
      <point x="365" y="556" type="line" smooth="yes"/>
      <point x="365" y="613"/>
      <point x="392" y="642"/>
      <point x="457" y="642" type="curve" smooth="yes"/>
      <point x="483" y="642" type="line"/>
      <point x="483" y="745" type="line"/>
      <point x="442" y="745" type="line" smooth="yes"/>
      <point x="289" y="745"/>
      <point x="220" y="679"/>
      <point x="220" y="564" type="curve" smooth="yes"/>
      <point x="220" y="475" type="line" smooth="yes"/>
      <point x="220" y="412"/>
      <point x="204" y="390"/>
      <point x="151" y="390" type="curve" smooth="yes"/>
      <point x="118" y="390" type="line"/>
      <point x="118" y="272" type="line"/>
      <point x="151" y="272" type="line" smooth="yes"/>
      <point x="204" y="272"/>
      <point x="220" y="250"/>
      <point x="220" y="187" type="curve" smooth="yes"/>
      <point x="220" y="98" type="line" smooth="yes"/>
      <point x="220" y="-18"/>
      <point x="251" y="-83"/>
      <point x="442" y="-83" type="curve" smooth="yes"/>
      <point x="483" y="-83" type="line"/>
      <point x="483" y="21" type="line"/>
      <point x="457" y="21" type="line" smooth="yes"/>
      <point x="392" y="21"/>
      <point x="365" y="47"/>
      <point x="365" y="105" type="curve" smooth="yes"/>
    </contour>
  </outline>
</glyph>
<glyph name="braceright.uc" format="2">
  <advance width="600"/>
  <outline>
    <contour>
      <point x="235" y="187" type="line" smooth="yes"/>
      <point x="235" y="266"/>
      <point x="248" y="311"/>
      <point x="317" y="331" type="curve"/>
      <point x="248" y="351"/>
      <point x="235" y="396"/>
      <point x="235" y="475" type="curve" smooth="yes"/>
      <point x="235" y="556" type="line" smooth="yes"/>
      <point x="235" y="613"/>
      <point x="208" y="642"/>
      <point x="143" y="642" type="curve" smooth="yes"/>
      <point x="117" y="642" type="line"/>
      <point x="117" y="745" type="line"/>
      <point x="158" y="745" type="line" smooth="yes"/>
      <point x="311" y="745"/>
      <point x="380" y="679"/>
      <point x="380" y="564" type="curve" smooth="yes"/>
      <point x="380" y="475" type="line" smooth="yes"/>
      <point x="380" y="412"/>
      <point x="396" y="390"/>
      <point x="449" y="390" type="curve" smooth="yes"/>
      <point x="482" y="390" type="line"/>
      <point x="482" y="272" type="line"/>
      <point x="449" y="272" type="line" smooth="yes"/>
      <point x="396" y="272"/>
      <point x="380" y="250"/>
      <point x="380" y="187" type="curve" smooth="yes"/>
      <point x="380" y="98" type="line" smooth="yes"/>
      <point x="380" y="-18"/>
      <point x="349" y="-83"/>
      <point x="158" y="-83" type="curve" smooth="yes"/>
      <point x="117" y="-83" type="line"/>
      <point x="117" y="21" type="line"/>
      <point x="143" y="21" type="line" smooth="yes"/>
      <point x="208" y="21"/>
      <point x="235" y="47"/>
      <point x="235" y="105" type="curve" smooth="yes"/>
    </contour>
  </outline>
</glyph>
<glyph name="bracketleft.uc" format="2">
  <advance width="600"/>
  <outline>
    <contour>
      <point x="208" y="-83" type="line"/>
      <point x="483" y="-83" type="line"/>
      <point x="483" y="24" type="line"/>
      <point x="353" y="24" type="line"/>
      <point x="353" y="638" type="line"/>
      <point x="483" y="638" type="line"/>
      <point x="483" y="745" type="line"/>
      <point x="208" y="745" type="line"/>
    </contour>
  </outline>
</glyph>
<glyph name="bullet.large" format="2">
  <advance width="600"/>
  <outline>
    <contour>
      <point x="300" y="585" type="curve" smooth="yes"/>
      <point x="150" y="585"/>
      <point x="25" y="459"/>
      <point x="25" y="309" type="curve" smooth="yes"/>
      <point x="25" y="159"/>
      <point x="150" y="34"/>
      <point x="300" y="34" type="curve" smooth="yes"/>
      <point x="450" y="34"/>
      <point x="576" y="159"/>
      <point x="576" y="309" type="curve" smooth="yes"/>
      <point x="576" y="459"/>
      <point x="450" y="585"/>
    </contour>
  </outline>
</glyph>
<glyph name="colon.tab" format="2">
  <advance width="600"/>
  <outline>
    <contour>
      <point x="225" y="179" type="line"/>
      <point x="225" y="0" type="line"/>
      <point x="376" y="0" type="line"/>
      <point x="376" y="179" type="line"/>
    </contour>
    <contour>
      <point x="225" y="500" type="line"/>
      <point x="225" y="321" type="line"/>
      <point x="376" y="321" type="line"/>
      <point x="376" y="500" type="line"/>
    </contour>
  </outline>
</glyph>
<glyph name="comma.tab" format="2">
  <advance width="600"/>
  <outline>
    <contour>
      <point x="225" y="179" type="line"/>
      <point x="225" y="0" type="line"/>
      <point x="304" y="0" type="line"/>
      <point x="304" y="-13" type="line" smooth="yes"/>
      <point x="304" y="-65"/>
      <point x="273" y="-100"/>
      <point x="203" y="-100" type="curve"/>
      <point x="203" y="-162" type="line"/>
      <point x="336" y="-162"/>
      <point x="376" y="-67"/>
      <point x="376" y="-12" type="curve" smooth="yes"/>
      <point x="376" y="179" type="line"/>
    </contour>
  </outline>
</glyph>
<glyph name="dong.tab" format="2">
  <advance width="600"/>
  <outline>
    <contour>
      <point x="234" y="541" type="curve" smooth="yes"/>
      <point x="132" y="541"/>
      <point x="50" y="469"/>
      <point x="50" y="330" type="curve" smooth="yes"/>
      <point x="50" y="190"/>
      <point x="132" y="120"/>
      <point x="234" y="120" type="curve" smooth="yes"/>
      <point x="320" y="120"/>
      <point x="369" y="174"/>
      <point x="391" y="249" type="curve"/>
      <point x="356" y="249" type="line"/>
      <point x="356" y="132" type="line"/>
      <point x="488" y="132" type="line"/>
      <point x="488" y="700" type="line"/>
      <point x="356" y="700" type="line"/>
      <point x="356" y="410" type="line"/>
      <point x="391" y="410" type="line"/>
      <point x="369" y="486"/>
      <point x="320" y="541"/>
    </contour>
    <contour>
      <point x="272" y="216" type="curve" smooth="yes"/>
      <point x="214" y="216"/>
      <point x="182" y="268"/>
      <point x="182" y="331" type="curve" smooth="yes"/>
      <point x="182" y="395"/>
      <point x="214" y="445"/>
      <point x="272" y="445" type="curve" smooth="yes"/>
      <point x="330" y="445"/>
      <point x="362" y="395"/>
      <point x="362" y="331" type="curve" smooth="yes"/>
      <point x="362" y="268"/>
      <point x="330" y="216"/>
    </contour>
    <contour>
      <point x="518" y="0" type="line"/>
      <point x="518" y="90" type="line"/>
      <point x="72" y="90" type="line"/>
      <point x="72" y="0" type="line"/>
    </contour>
    <contour>
      <point x="548" y="569" type="line"/>
      <point x="548" y="659" type="line"/>
      <point x="201" y="659" type="line"/>
      <point x="201" y="569" type="line"/>
    </contour>
  </outline>
</glyph>
<glyph name="eight.den" format="2">
  <advance width="350"/>
  <outline>
    <contour>
      <point x="157" y="208" type="curve" smooth="yes"/>
      <point x="134" y="208"/>
      <point x="120" y="221"/>
      <point x="120" y="239" type="curve" smooth="yes"/>
      <point x="120" y="257"/>
      <point x="134" y="271"/>
      <point x="157" y="271" type="curve" smooth="yes"/>
      <point x="180" y="271"/>
      <point x="193" y="257"/>
      <point x="193" y="239" type="curve" smooth="yes"/>
      <point x="193" y="221"/>
      <point x="180" y="208"/>
    </contour>
    <contour>
      <point x="98" y="172" type="curve"/>
      <point x="98" y="181" type="line"/>
      <point x="55" y="172"/>
      <point x="20" y="145"/>
      <point x="20" y="96" type="curve" smooth="yes"/>
      <point x="20" y="38"/>
      <point x="70" y="-6"/>
      <point x="157" y="-6" type="curve" smooth="yes"/>
      <point x="244" y="-6"/>
      <point x="294" y="38"/>
      <point x="294" y="96" type="curve" smooth="yes"/>
      <point x="294" y="145"/>
      <point x="259" y="172"/>
      <point x="216" y="181" type="curve"/>
      <point x="216" y="172" type="line"/>
      <point x="252" y="179"/>
      <point x="283" y="202"/>
      <point x="283" y="244" type="curve" smooth="yes"/>
      <point x="283" y="296"/>
      <point x="240" y="337"/>
      <point x="157" y="337" type="curve" smooth="yes"/>
      <point x="74" y="337"/>
      <point x="31" y="296"/>
      <point x="31" y="244" type="curve" smooth="yes"/>
      <point x="31" y="202"/>
      <point x="62" y="179"/>
    </contour>
    <contour>
      <point x="157" y="143" type="curve" smooth="yes"/>
      <point x="184" y="143"/>
      <point x="202" y="127"/>
      <point x="202" y="102" type="curve" smooth="yes"/>
      <point x="202" y="78"/>
      <point x="184" y="60"/>
      <point x="157" y="60" type="curve" smooth="yes"/>
      <point x="130" y="60"/>
      <point x="112" y="78"/>
      <point x="112" y="102" type="curve" smooth="yes"/>
      <point x="112" y="127"/>
      <point x="130" y="143"/>
    </contour>
  </outline>
</glyph>
<glyph name="eight.num" format="2">
  <advance width="350"/>
  <outline>
    <contour>
      <point x="155" y="577" type="curve" smooth="yes"/>
      <point x="132" y="577"/>
      <point x="118" y="590"/>
      <point x="118" y="608" type="curve" smooth="yes"/>
      <point x="118" y="626"/>
      <point x="132" y="640"/>
      <point x="155" y="640" type="curve" smooth="yes"/>
      <point x="178" y="640"/>
      <point x="191" y="626"/>
      <point x="191" y="608" type="curve" smooth="yes"/>
      <point x="191" y="590"/>
      <point x="178" y="577"/>
    </contour>
    <contour>
      <point x="96" y="541" type="curve"/>
      <point x="96" y="550" type="line"/>
      <point x="53" y="541"/>
      <point x="18" y="514"/>
      <point x="18" y="465" type="curve" smooth="yes"/>
      <point x="18" y="407"/>
      <point x="68" y="363"/>
      <point x="155" y="363" type="curve" smooth="yes"/>
      <point x="242" y="363"/>
      <point x="292" y="407"/>
      <point x="292" y="465" type="curve" smooth="yes"/>
      <point x="292" y="514"/>
      <point x="257" y="541"/>
      <point x="214" y="550" type="curve"/>
      <point x="214" y="541" type="line"/>
      <point x="250" y="548"/>
      <point x="281" y="571"/>
      <point x="281" y="613" type="curve" smooth="yes"/>
      <point x="281" y="665"/>
      <point x="238" y="706"/>
      <point x="155" y="706" type="curve" smooth="yes"/>
      <point x="72" y="706"/>
      <point x="29" y="665"/>
      <point x="29" y="613" type="curve" smooth="yes"/>
      <point x="29" y="571"/>
      <point x="60" y="548"/>
    </contour>
    <contour>
      <point x="155" y="512" type="curve" smooth="yes"/>
      <point x="182" y="512"/>
      <point x="200" y="496"/>
      <point x="200" y="471" type="curve" smooth="yes"/>
      <point x="200" y="447"/>
      <point x="182" y="429"/>
      <point x="155" y="429" type="curve" smooth="yes"/>
      <point x="128" y="429"/>
      <point x="110" y="447"/>
      <point x="110" y="471" type="curve" smooth="yes"/>
      <point x="110" y="496"/>
      <point x="128" y="512"/>
    </contour>
  </outline>
</glyph>
<glyph name="five.den" format="2">
  <advance width="350"/>
  <outline>
    <contour>
      <point x="30" y="116" type="line"/>
      <point x="33" y="34"/>
      <point x="80" y="-7"/>
      <point x="159" y="-7" type="curve" smooth="yes"/>
      <point x="241" y="-7"/>
      <point x="282" y="42"/>
      <point x="282" y="115" type="curve" smooth="yes"/>
      <point x="282" y="178"/>
      <point x="250" y="225"/>
      <point x="184" y="225" type="curve" smooth="yes"/>
      <point x="136" y="225"/>
      <point x="108" y="196"/>
      <point x="98" y="166" type="curve"/>
      <point x="124" y="166" type="line"/>
      <point x="142" y="312" type="line"/>
      <point x="97" y="253" type="line"/>
      <point x="272" y="253" type="line"/>
      <point x="272" y="331" type="line"/>
      <point x="59" y="331" type="line"/>
      <point x="38" y="141" type="line"/>
      <point x="127" y="135" type="line"/>
      <point x="132" y="145"/>
      <point x="143" y="155"/>
      <point x="157" y="155" type="curve" smooth="yes"/>
      <point x="178" y="155"/>
      <point x="188" y="138"/>
      <point x="188" y="112" type="curve" smooth="yes"/>
      <point x="188" y="86"/>
      <point x="179" y="65"/>
      <point x="158" y="65" type="curve" smooth="yes"/>
      <point x="138" y="65"/>
      <point x="129" y="81"/>
      <point x="128" y="104" type="curve"/>
    </contour>
  </outline>
</glyph>
<glyph name="five.num" format="2">
  <advance width="350"/>
  <outline>
    <contour>
      <point x="28" y="485" type="line"/>
      <point x="31" y="403"/>
      <point x="78" y="362"/>
      <point x="157" y="362" type="curve" smooth="yes"/>
      <point x="239" y="362"/>
      <point x="280" y="411"/>
      <point x="280" y="484" type="curve" smooth="yes"/>
      <point x="280" y="547"/>
      <point x="248" y="594"/>
      <point x="182" y="594" type="curve" smooth="yes"/>
      <point x="134" y="594"/>
      <point x="106" y="565"/>
      <point x="96" y="535" type="curve"/>
      <point x="122" y="535" type="line"/>
      <point x="140" y="681" type="line"/>
      <point x="95" y="622" type="line"/>
      <point x="270" y="622" type="line"/>
      <point x="270" y="700" type="line"/>
      <point x="57" y="700" type="line"/>
      <point x="36" y="510" type="line"/>
      <point x="125" y="504" type="line"/>
      <point x="130" y="514"/>
      <point x="141" y="524"/>
      <point x="155" y="524" type="curve" smooth="yes"/>
      <point x="176" y="524"/>
      <point x="186" y="507"/>
      <point x="186" y="481" type="curve" smooth="yes"/>
      <point x="186" y="455"/>
      <point x="177" y="434"/>
      <point x="156" y="434" type="curve" smooth="yes"/>
      <point x="136" y="434"/>
      <point x="127" y="450"/>
      <point x="126" y="473" type="curve"/>
    </contour>
  </outline>
</glyph>
<glyph name="five.sub" format="2">
  <advance width="350"/>
  <outline>
    <contour>
      <point x="49" y="75" type="line"/>
      <point x="52" y="-7"/>
      <point x="99" y="-48"/>
      <point x="178" y="-48" type="curve" smooth="yes"/>
      <point x="260" y="-48"/>
      <point x="301" y="1"/>
      <point x="301" y="74" type="curve" smooth="yes"/>
      <point x="301" y="137"/>
      <point x="269" y="184"/>
      <point x="203" y="184" type="curve" smooth="yes"/>
      <point x="155" y="184"/>
      <point x="127" y="155"/>
      <point x="117" y="125" type="curve"/>
      <point x="143" y="125" type="line"/>
      <point x="161" y="271" type="line"/>
      <point x="116" y="212" type="line"/>
      <point x="291" y="212" type="line"/>
      <point x="291" y="290" type="line"/>
      <point x="78" y="290" type="line"/>
      <point x="57" y="100" type="line"/>
      <point x="146" y="94" type="line"/>
      <point x="151" y="104"/>
      <point x="162" y="114"/>
      <point x="176" y="114" type="curve" smooth="yes"/>
      <point x="197" y="114"/>
      <point x="207" y="97"/>
      <point x="207" y="71" type="curve" smooth="yes"/>
      <point x="207" y="45"/>
      <point x="198" y="24"/>
      <point x="177" y="24" type="curve" smooth="yes"/>
      <point x="157" y="24"/>
      <point x="148" y="40"/>
      <point x="147" y="63" type="curve"/>
    </contour>
  </outline>
</glyph>
<glyph name="five.sup" format="2">
  <advance width="350"/>
  <outline>
    <contour>
      <point x="49" y="585" type="line"/>
      <point x="52" y="503"/>
      <point x="99" y="462"/>
      <point x="178" y="462" type="curve" smooth="yes"/>
      <point x="260" y="462"/>
      <point x="301" y="511"/>
      <point x="301" y="584" type="curve" smooth="yes"/>
      <point x="301" y="647"/>
      <point x="269" y="694"/>
      <point x="203" y="694" type="curve" smooth="yes"/>
      <point x="155" y="694"/>
      <point x="127" y="665"/>
      <point x="117" y="635" type="curve"/>
      <point x="143" y="635" type="line"/>
      <point x="161" y="781" type="line"/>
      <point x="116" y="722" type="line"/>
      <point x="291" y="722" type="line"/>
      <point x="291" y="800" type="line"/>
      <point x="78" y="800" type="line"/>
      <point x="57" y="610" type="line"/>
      <point x="146" y="604" type="line"/>
      <point x="151" y="614"/>
      <point x="162" y="624"/>
      <point x="176" y="624" type="curve" smooth="yes"/>
      <point x="197" y="624"/>
      <point x="207" y="607"/>
      <point x="207" y="581" type="curve" smooth="yes"/>
      <point x="207" y="555"/>
      <point x="198" y="534"/>
      <point x="177" y="534" type="curve" smooth="yes"/>
      <point x="157" y="534"/>
      <point x="148" y="550"/>
      <point x="147" y="573" type="curve"/>
    </contour>
  </outline>
</glyph>
<glyph name="four.den" format="2">
  <advance width="350"/>
  <outline>
    <contour>
      <point x="251" y="333" type="line"/>
      <point x="134" y="333" type="line"/>
      <point x="30" y="136" type="line"/>
      <point x="30" y="59" type="line"/>
      <point x="299" y="59" type="line"/>
      <point x="299" y="133" type="line"/>
      <point x="71" y="133" type="line"/>
      <point x="92" y="109" type="line"/>
      <point x="200" y="317" type="line"/>
      <point x="166" y="314" type="line"/>
      <point x="166" y="0" type="line"/>
      <point x="251" y="0" type="line"/>
    </contour>
  </outline>
</glyph>
<glyph name="four.num" format="2">
  <advance width="350"/>
  <outline>
    <contour>
      <point x="251" y="700" type="line"/>
      <point x="134" y="700" type="line"/>
      <point x="30" y="503" type="line"/>
      <point x="30" y="426" type="line"/>
      <point x="299" y="426" type="line"/>
      <point x="299" y="500" type="line"/>
      <point x="71" y="500" type="line"/>
      <point x="92" y="476" type="line"/>
      <point x="200" y="684" type="line"/>
      <point x="166" y="681" type="line"/>
      <point x="166" y="367" type="line"/>
      <point x="251" y="367" type="line"/>
    </contour>
  </outline>
</glyph>
<glyph name="four.tab" format="2">
  <advance width="600"/>
  <outline>
    <contour>
      <point x="471" y="700" type="line"/>
      <point x="313" y="700" type="line"/>
      <point x="20" y="275" type="line"/>
      <point x="20" y="161" type="line"/>
      <point x="577" y="161" type="line"/>
      <point x="577" y="274" type="line"/>
      <point x="74" y="274" type="line"/>
      <point x="113" y="210" type="line"/>
      <point x="426" y="661" type="line"/>
      <point x="331" y="661" type="line"/>
      <point x="331" y="0" type="line"/>
      <point x="471" y="0" type="line"/>
    </contour>
  </outline>
</glyph>
<glyph name="macroncmb.uc" format="2">
  <advance width="600"/>
  <outline>
    <contour>
      <point x="143" y="760" type="line"/>
      <point x="457" y="760" type="line"/>
      <point x="457" y="860" type="line"/>
      <point x="143" y="860" type="line"/>
    </contour>
  </outline>
</glyph>
<glyph name="minus.tab" format="2">
  <advance width="600"/>
  <outline>
    <contour>
      <point x="544" y="280" type="line"/>
      <point x="544" y="400" type="line"/>
      <point x="56" y="400" type="line"/>
      <point x="56" y="280" type="line"/>
    </contour>
  </outline>
</glyph>
<glyph name="nine.den" format="2">
  <advance width="350"/>
  <outline>
    <contour>
      <point x="158" y="337" type="curve" smooth="yes"/>
      <point x="69" y="337"/>
      <point x="26" y="286"/>
      <point x="26" y="218" type="curve" smooth="yes"/>
      <point x="26" y="150"/>
      <point x="69" y="113"/>
      <point x="128" y="113" type="curve" smooth="yes"/>
      <point x="182" y="113"/>
      <point x="213" y="139"/>
      <point x="221" y="187" type="curve"/>
      <point x="199" y="187" type="line"/>
      <point x="199" y="157" type="line" smooth="yes"/>
      <point x="199" y="108"/>
      <point x="189" y="62"/>
      <point x="157" y="62" type="curve" smooth="yes"/>
      <point x="139" y="62"/>
      <point x="128" y="75"/>
      <point x="127" y="96" type="curve"/>
      <point x="27" y="109" type="line"/>
      <point x="31" y="35"/>
      <point x="82" y="-6"/>
      <point x="154" y="-6" type="curve" smooth="yes"/>
      <point x="252" y="-6"/>
      <point x="293" y="57"/>
      <point x="293" y="172" type="curve" smooth="yes"/>
      <point x="293" y="227"/>
      <point x="285" y="258"/>
      <point x="265" y="288" type="curve" smooth="yes"/>
      <point x="245" y="317"/>
      <point x="209" y="337"/>
    </contour>
    <contour>
      <point x="158" y="176" type="curve" smooth="yes"/>
      <point x="135" y="176"/>
      <point x="120" y="195"/>
      <point x="120" y="222" type="curve" smooth="yes"/>
      <point x="120" y="249"/>
      <point x="135" y="268"/>
      <point x="158" y="268" type="curve" smooth="yes"/>
      <point x="181" y="268"/>
      <point x="196" y="249"/>
      <point x="196" y="222" type="curve" smooth="yes"/>
      <point x="196" y="195"/>
      <point x="181" y="176"/>
    </contour>
  </outline>
</glyph>
<glyph name="nine.sup" format="2">
  <advance width="350"/>
  <outline>
    <contour>
      <point x="177" y="806" type="curve" smooth="yes"/>
      <point x="88" y="806"/>
      <point x="45" y="755"/>
      <point x="45" y="687" type="curve" smooth="yes"/>
      <point x="45" y="619"/>
      <point x="88" y="582"/>
      <point x="147" y="582" type="curve" smooth="yes"/>
      <point x="201" y="582"/>
      <point x="232" y="608"/>
      <point x="240" y="656" type="curve"/>
      <point x="218" y="656" type="line"/>
      <point x="218" y="626" type="line" smooth="yes"/>
      <point x="218" y="577"/>
      <point x="208" y="531"/>
      <point x="176" y="531" type="curve" smooth="yes"/>
      <point x="158" y="531"/>
      <point x="147" y="544"/>
      <point x="146" y="565" type="curve"/>
      <point x="46" y="578" type="line"/>
      <point x="50" y="504"/>
      <point x="101" y="463"/>
      <point x="173" y="463" type="curve" smooth="yes"/>
      <point x="271" y="463"/>
      <point x="312" y="526"/>
      <point x="312" y="641" type="curve" smooth="yes"/>
      <point x="312" y="696"/>
      <point x="304" y="727"/>
      <point x="284" y="757" type="curve" smooth="yes"/>
      <point x="264" y="786"/>
      <point x="228" y="806"/>
    </contour>
    <contour>
      <point x="177" y="645" type="curve" smooth="yes"/>
      <point x="154" y="645"/>
      <point x="139" y="664"/>
      <point x="139" y="691" type="curve" smooth="yes"/>
      <point x="139" y="718"/>
      <point x="154" y="737"/>
      <point x="177" y="737" type="curve" smooth="yes"/>
      <point x="200" y="737"/>
      <point x="215" y="718"/>
      <point x="215" y="691" type="curve" smooth="yes"/>
      <point x="215" y="664"/>
      <point x="200" y="645"/>
    </contour>
  </outline>
</glyph>
<glyph name="one.num" format="2">
  <advance width="350"/>
  <outline>
    <contour>
      <point x="113" y="700" type="line"/>
      <point x="113" y="642"/>
      <point x="97" y="624"/>
      <point x="34" y="624" type="curve"/>
      <point x="34" y="553" type="line"/>
      <point x="159" y="553" type="line"/>
      <point x="106" y="616" type="line"/>
      <point x="106" y="367" type="line"/>
      <point x="199" y="367" type="line"/>
      <point x="199" y="700" type="line"/>
    </contour>
  </outline>
</glyph>
<glyph name="one.sub" format="2">
  <advance width="350"/>
  <outline>
    <contour>
      <point x="134" y="290" type="line"/>
      <point x="134" y="232"/>
      <point x="118" y="214"/>
      <point x="55" y="214" type="curve"/>
      <point x="55" y="143" type="line"/>
      <point x="180" y="143" type="line"/>
      <point x="127" y="206" type="line"/>
      <point x="127" y="-43" type="line"/>
      <point x="220" y="-43" type="line"/>
      <point x="220" y="290" type="line"/>
    </contour>
  </outline>
</glyph>
<glyph name="one.sup" format="2">
  <advance width="350"/>
  <outline>
    <contour>
      <point x="134" y="800" type="line"/>
      <point x="134" y="742"/>
      <point x="118" y="724"/>
      <point x="55" y="724" type="curve"/>
      <point x="55" y="653" type="line"/>
      <point x="180" y="653" type="line"/>
      <point x="127" y="716" type="line"/>
      <point x="127" y="467" type="line"/>
      <point x="220" y="467" type="line"/>
      <point x="220" y="800" type="line"/>
    </contour>
  </outline>
</glyph>
<glyph name="period.tab" format="2">
  <advance width="600"/>
  <outline>
    <contour>
      <point x="225" y="179" type="line"/>
      <point x="225" y="0" type="line"/>
      <point x="376" y="0" type="line"/>
      <point x="376" y="179" type="line"/>
    </contour>
  </outline>
</glyph>
<glyph name="plus.sub" format="2">
  <advance width="350"/>
  <outline>
    <contour>
      <point x="48" y="84" type="line"/>
      <point x="302" y="84" type="line"/>
      <point x="302" y="166" type="line"/>
      <point x="48" y="166" type="line"/>
    </contour>
    <contour>
      <point x="132" y="259" type="line"/>
      <point x="132" y="-9" type="line"/>
      <point x="218" y="-9" type="line"/>
      <point x="218" y="259" type="line"/>
    </contour>
  </outline>
</glyph>
<glyph name="seven.den" format="2">
  <advance width="350"/>
  <outline>
    <contour>
      <point x="27" y="333" type="line"/>
      <point x="27" y="196" type="line"/>
      <point x="113" y="196" type="line"/>
      <point x="113" y="286" type="line"/>
      <point x="79" y="257" type="line"/>
      <point x="244" y="257" type="line"/>
      <point x="219" y="294" type="line"/>
      <point x="154" y="200"/>
      <point x="106" y="114"/>
      <point x="101" y="0" type="curve"/>
      <point x="197" y="0" type="line"/>
      <point x="203" y="111"/>
      <point x="237" y="188"/>
      <point x="291" y="277" type="curve"/>
      <point x="291" y="333" type="line"/>
    </contour>
  </outline>
</glyph>
<glyph name="seven.sub" format="2">
  <advance width="350"/>
  <outline>
    <contour>
      <point x="48" y="290" type="line"/>
      <point x="48" y="153" type="line"/>
      <point x="134" y="153" type="line"/>
      <point x="134" y="243" type="line"/>
      <point x="100" y="214" type="line"/>
      <point x="265" y="214" type="line"/>
      <point x="240" y="251" type="line"/>
      <point x="175" y="157"/>
      <point x="127" y="71"/>
      <point x="122" y="-43" type="curve"/>
      <point x="218" y="-43" type="line"/>
      <point x="224" y="68"/>
      <point x="258" y="145"/>
      <point x="312" y="234" type="curve"/>
      <point x="312" y="290" type="line"/>
    </contour>
  </outline>
</glyph>
<glyph name="seven.tab" format="2">
  <advance width="600"/>
  <outline>
    <contour>
      <point x="53" y="700" type="line"/>
      <point x="53" y="452" type="line"/>
      <point x="191" y="452" type="line"/>
      <point x="191" y="612" type="line"/>
      <point x="137" y="580" type="line"/>
      <point x="516" y="580" type="line"/>
      <point x="460" y="628" type="line"/>
      <point x="322" y="422"/>
      <point x="187" y="243"/>
      <point x="173" y="0" type="curve"/>
      <point x="325" y="0" type="line"/>
      <point x="337" y="239"/>
      <point x="456" y="397"/>
      <point x="585" y="591" type="curve"/>
      <point x="585" y="700" type="line"/>
    </contour>
  </outline>
</glyph>
<glyph name="six.den" format="2">
  <advance width="350"/>
  <outline>
    <contour>
      <point x="155" y="-6" type="curve" smooth="yes"/>
      <point x="244" y="-6"/>
      <point x="287" y="49"/>
      <point x="287" y="110" type="curve" smooth="yes"/>
      <point x="287" y="178"/>
      <point x="247" y="221"/>
      <point x="184" y="221" type="curve" smooth="yes"/>
      <point x="132" y="221"/>
      <point x="96" y="192"/>
      <point x="87" y="144" type="curve"/>
      <point x="113" y="144" type="line"/>
      <point x="113" y="173" type="line" smooth="yes"/>
      <point x="113" y="236"/>
      <point x="138" y="262"/>
      <point x="164" y="262" type="curve" smooth="yes"/>
      <point x="179" y="262"/>
      <point x="188" y="255"/>
      <point x="189" y="238" type="curve"/>
      <point x="282" y="228" type="line"/>
      <point x="279" y="295"/>
      <point x="237" y="337"/>
      <point x="167" y="337" type="curve" smooth="yes"/>
      <point x="76" y="337"/>
      <point x="19" y="266"/>
      <point x="19" y="156" type="curve" smooth="yes"/>
      <point x="19" y="109"/>
      <point x="28" y="72"/>
      <point x="45" y="48" type="curve" smooth="yes"/>
      <point x="68" y="14"/>
      <point x="101" y="-6"/>
    </contour>
    <contour>
      <point x="155" y="62" type="curve" smooth="yes"/>
      <point x="132" y="62"/>
      <point x="117" y="81"/>
      <point x="117" y="109" type="curve" smooth="yes"/>
      <point x="117" y="137"/>
      <point x="132" y="156"/>
      <point x="155" y="156" type="curve" smooth="yes"/>
      <point x="179" y="156"/>
      <point x="193" y="137"/>
      <point x="193" y="109" type="curve" smooth="yes"/>
      <point x="193" y="81"/>
      <point x="179" y="62"/>
    </contour>
  </outline>
</glyph>
<glyph name="six.sub" format="2">
  <advance width="350"/>
  <outline>
    <contour>
      <point x="174" y="-47" type="curve" smooth="yes"/>
      <point x="263" y="-47"/>
      <point x="306" y="8"/>
      <point x="306" y="69" type="curve" smooth="yes"/>
      <point x="306" y="137"/>
      <point x="266" y="180"/>
      <point x="203" y="180" type="curve" smooth="yes"/>
      <point x="151" y="180"/>
      <point x="115" y="151"/>
      <point x="106" y="103" type="curve"/>
      <point x="132" y="103" type="line"/>
      <point x="132" y="132" type="line" smooth="yes"/>
      <point x="132" y="195"/>
      <point x="157" y="221"/>
      <point x="183" y="221" type="curve" smooth="yes"/>
      <point x="198" y="221"/>
      <point x="207" y="214"/>
      <point x="208" y="197" type="curve"/>
      <point x="301" y="187" type="line"/>
      <point x="298" y="254"/>
      <point x="256" y="296"/>
      <point x="186" y="296" type="curve" smooth="yes"/>
      <point x="95" y="296"/>
      <point x="38" y="225"/>
      <point x="38" y="115" type="curve" smooth="yes"/>
      <point x="38" y="68"/>
      <point x="47" y="31"/>
      <point x="64" y="7" type="curve" smooth="yes"/>
      <point x="87" y="-27"/>
      <point x="120" y="-47"/>
    </contour>
    <contour>
      <point x="174" y="21" type="curve" smooth="yes"/>
      <point x="151" y="21"/>
      <point x="136" y="40"/>
      <point x="136" y="68" type="curve" smooth="yes"/>
      <point x="136" y="96"/>
      <point x="151" y="115"/>
      <point x="174" y="115" type="curve" smooth="yes"/>
      <point x="198" y="115"/>
      <point x="212" y="96"/>
      <point x="212" y="68" type="curve" smooth="yes"/>
      <point x="212" y="40"/>
      <point x="198" y="21"/>
    </contour>
  </outline>
</glyph>
<glyph name="two.sup" format="2">
  <advance width="350"/>
  <outline>
    <contour>
      <point x="295" y="468" type="line"/>
      <point x="295" y="545" type="line"/>
      <point x="112" y="545" type="line"/>
      <point x="108" y="489" type="line"/>
      <point x="215" y="573"/>
      <point x="295" y="621"/>
      <point x="295" y="697" type="curve" smooth="yes"/>
      <point x="295" y="747"/>
      <point x="265" y="806"/>
      <point x="175" y="806" type="curve" smooth="yes"/>
      <point x="90" y="806"/>
      <point x="53" y="752"/>
      <point x="53" y="701" type="curve" smooth="yes"/>
      <point x="53" y="686"/>
      <point x="56" y="672"/>
      <point x="66" y="656" type="curve"/>
      <point x="153" y="667" type="line"/>
      <point x="147" y="678"/>
      <point x="145" y="688"/>
      <point x="145" y="696" type="curve" smooth="yes"/>
      <point x="145" y="722"/>
      <point x="156" y="732"/>
      <point x="173" y="732" type="curve" smooth="yes"/>
      <point x="190" y="732"/>
      <point x="200" y="723"/>
      <point x="200" y="696" type="curve" smooth="yes"/>
      <point x="200" y="660"/>
      <point x="164" y="633"/>
      <point x="58" y="543" type="curve"/>
      <point x="58" y="468" type="line"/>
    </contour>
  </outline>
</glyph>
<glyph name="zero.den" format="2">
  <advance width="350"/>
  <outline>
    <contour>
      <point x="154" y="337" type="curve" smooth="yes"/>
      <point x="68" y="337"/>
      <point x="14" y="271"/>
      <point x="14" y="165" type="curve" smooth="yes"/>
      <point x="14" y="60"/>
      <point x="68" y="-6"/>
      <point x="154" y="-6" type="curve" smooth="yes"/>
      <point x="240" y="-6"/>
      <point x="295" y="60"/>
      <point x="295" y="165" type="curve" smooth="yes"/>
      <point x="295" y="271"/>
      <point x="240" y="337"/>
    </contour>
    <contour>
      <point x="155" y="72" type="curve" smooth="yes"/>
      <point x="126" y="72"/>
      <point x="109" y="102"/>
      <point x="109" y="165" type="curve" smooth="yes"/>
      <point x="109" y="229"/>
      <point x="126" y="259"/>
      <point x="155" y="259" type="curve" smooth="yes"/>
      <point x="184" y="259"/>
      <point x="201" y="229"/>
      <point x="201" y="165" type="curve" smooth="yes"/>
      <point x="201" y="102"/>
      <point x="184" y="72"/>
    </contour>
  </outline>
</glyph>
<glyph name="zero.sub" format="2">
  <advance width="350"/>
  <outline>
    <contour>
      <point x="175" y="296" type="curve" smooth="yes"/>
      <point x="89" y="296"/>
      <point x="35" y="230"/>
      <point x="35" y="124" type="curve" smooth="yes"/>
      <point x="35" y="19"/>
      <point x="89" y="-47"/>
      <point x="175" y="-47" type="curve" smooth="yes"/>
      <point x="261" y="-47"/>
      <point x="316" y="19"/>
      <point x="316" y="124" type="curve" smooth="yes"/>
      <point x="316" y="230"/>
      <point x="261" y="296"/>
    </contour>
    <contour>
      <point x="176" y="31" type="curve" smooth="yes"/>
      <point x="147" y="31"/>
      <point x="130" y="61"/>
      <point x="130" y="124" type="curve" smooth="yes"/>
      <point x="130" y="188"/>
      <point x="147" y="218"/>
      <point x="176" y="218" type="curve" smooth="yes"/>
      <point x="205" y="218"/>
      <point x="222" y="188"/>
      <point x="222" y="124" type="curve" smooth="yes"/>
      <point x="222" y="61"/>
      <point x="205" y="31"/>
    </contour>
  </outline>
</glyph>
<glyph name="zero.sup" format="2">
  <advance width="350"/>
  <outline>
    <contour>
      <point x="175" y="806" type="curve" smooth="yes"/>
      <point x="89" y="806"/>
      <point x="35" y="740"/>
      <point x="35" y="634" type="curve" smooth="yes"/>
      <point x="35" y="529"/>
      <point x="89" y="463"/>
      <point x="175" y="463" type="curve" smooth="yes"/>
      <point x="261" y="463"/>
      <point x="316" y="529"/>
      <point x="316" y="634" type="curve" smooth="yes"/>
      <point x="316" y="740"/>
      <point x="261" y="806"/>
    </contour>
    <contour>
      <point x="176" y="541" type="curve" smooth="yes"/>
      <point x="147" y="541"/>
      <point x="130" y="571"/>
      <point x="130" y="634" type="curve" smooth="yes"/>
      <point x="130" y="698"/>
      <point x="147" y="728"/>
      <point x="176" y="728" type="curve" smooth="yes"/>
      <point x="205" y="728"/>
      <point x="222" y="698"/>
      <point x="222" y="634" type="curve" smooth="yes"/>
      <point x="222" y="571"/>
      <point x="205" y="541"/>
    </contour>
  </outline>
</glyph>
<glyph name="zero.tab" format="2">
  <advance width="600"/>
  <outline>
    <contour>
      <point x="299" y="712" type="curve" smooth="yes"/>
      <point x="137" y="712"/>
      <point x="30" y="571"/>
      <point x="30" y="350" type="curve" smooth="yes"/>
      <point x="30" y="128"/>
      <point x="137" y="-12"/>
      <point x="299" y="-12" type="curve" smooth="yes"/>
      <point x="461" y="-12"/>
      <point x="568" y="128"/>
      <point x="568" y="350" type="curve" smooth="yes"/>
      <point x="568" y="571"/>
      <point x="461" y="712"/>
    </contour>
    <contour>
      <point x="299" y="111" type="curve" smooth="yes"/>
      <point x="220" y="111"/>
      <point x="174" y="193"/>
      <point x="174" y="350" type="curve" smooth="yes"/>
      <point x="174" y="507"/>
      <point x="220" y="589"/>
      <point x="299" y="589" type="curve" smooth="yes"/>
      <point x="378" y="589"/>
      <point x="424" y="507"/>
      <point x="424" y="350" type="curve" smooth="yes"/>
      <point x="424" y="193"/>
      <point x="378" y="111"/>
    </contour>
  </outline>
</glyph>
